<svg xmlns="http://www.w3.org/2000/svg" xmlns:xlink="http://www.w3.org/1999/xlink" width="500" zoomAndPan="magnify" viewBox="0 0 375 374.999991" height="500" preserveAspectRatio="xMidYMid meet" version="1.0"><defs><clipPath id="5d6b85fdc6"><path d="M 81 88 L 264 88 L 264 163 L 81 163 Z M 81 88 " clip-rule="nonzero"/></clipPath><clipPath id="30b4355fe5"><path d="M 72.671875 110.652344 L 249.695312 67.152344 L 264.199219 126.160156 L 87.171875 169.660156 Z M 72.671875 110.652344 " clip-rule="nonzero"/></clipPath><clipPath id="d741050d53"><path d="M 72.671875 110.652344 L 249.695312 67.152344 L 264.199219 126.160156 L 87.171875 169.660156 Z M 72.671875 110.652344 " clip-rule="nonzero"/></clipPath><clipPath id="fccb695134"><path d="M 72.84375 110.609375 L 252.585938 66.441406 L 266.292969 122.226562 L 86.550781 166.394531 Z M 72.84375 110.609375 " clip-rule="nonzero"/></clipPath><clipPath id="46d01c7fca"><path d="M 106 137 L 134 137 L 134 165 L 106 165 Z M 106 137 " clip-rule="nonzero"/></clipPath><clipPath id="179d6456d6"><path d="M 72.671875 110.652344 L 249.695312 67.152344 L 264.199219 126.160156 L 87.171875 169.660156 Z M 72.671875 110.652344 " clip-rule="nonzero"/></clipPath><clipPath id="5dbd91f391"><path d="M 72.671875 110.652344 L 249.695312 67.152344 L 264.199219 126.160156 L 87.171875 169.660156 Z M 72.671875 110.652344 " clip-rule="nonzero"/></clipPath><clipPath id="247c6d2027"><path d="M 215 111 L 243 111 L 243 139 L 215 139 Z M 215 111 " clip-rule="nonzero"/></clipPath><clipPath id="b98e10498b"><path d="M 72.671875 110.652344 L 249.695312 67.152344 L 264.199219 126.160156 L 87.171875 169.660156 Z M 72.671875 110.652344 " clip-rule="nonzero"/></clipPath><clipPath id="6ed7578eb3"><path d="M 72.671875 110.652344 L 249.695312 67.152344 L 264.199219 126.160156 L 87.171875 169.660156 Z M 72.671875 110.652344 " clip-rule="nonzero"/></clipPath><clipPath id="500da6b5a7"><path d="M 0.5 10.5 L 301 10.5 L 301 241 L 0.5 241 Z M 0.5 10.5 " clip-rule="nonzero"/></clipPath><clipPath id="5d778d0d3f"><path d="M 70 250 L 131 250 L 131 310.441406 L 70 310.441406 Z M 70 250 " clip-rule="nonzero"/></clipPath><clipPath id="e0bda42190"><path d="M 190 250 L 251 250 L 251 310.441406 L 190 310.441406 Z M 190 250 " clip-rule="nonzero"/></clipPath><clipPath id="fc53da7299"><rect x="0" width="311" y="0" height="311"/></clipPath></defs><g transform="matrix(1, 0, 0, 1, 37, 27)"><g clip-path="url(#fc53da7299)"><g clip-path="url(#5d6b85fdc6)"><g clip-path="url(#30b4355fe5)"><g clip-path="url(#d741050d53)"><g clip-path="url(#fccb695134)"><path fill="#153e76" d="M 197.59375 102.585938 L 161.046875 111.566406 C 160.476562 111.707031 159.902344 111.355469 159.761719 110.789062 L 156.183594 96.226562 C 156.042969 95.644531 156.410156 95.058594 156.996094 94.933594 C 166.335938 92.960938 175.996094 92.457031 185.125 95.796875 C 189.554688 97.417969 193.5 99.988281 197.636719 102.203125 C 197.804688 102.292969 197.777344 102.539062 197.59375 102.585938 Z M 154.414062 112.101562 C 154.554688 112.671875 154.207031 113.246094 153.636719 113.386719 C 149.328125 114.445312 145.574219 115.367188 141.167969 116.449219 C 137.640625 117.316406 134.105469 118.164062 130.523438 118.789062 C 127.183594 119.371094 123.574219 120.058594 120.210938 119.246094 C 118.707031 118.882812 117.097656 117.761719 117.921875 116.050781 C 117.929688 116.03125 117.941406 116.015625 117.949219 116 C 124.46875 104.304688 137.414062 100.132812 149.53125 96.792969 C 150.109375 96.636719 150.699219 96.984375 150.84375 97.5625 Z M 262.386719 106.554688 C 262.210938 106.015625 261.648438 105.695312 261.09375 105.828125 C 260.621094 105.9375 260.140625 105.671875 260.023438 105.199219 L 259.820312 104.359375 C 258.96875 100.90625 257.550781 99.671875 257.253906 99.445312 C 257.203125 99.410156 257.15625 99.367188 257.109375 99.324219 C 250.820312 93.804688 212.09375 97.148438 206.652344 97.648438 C 206.230469 97.683594 205.804688 97.636719 205.40625 97.503906 C 199.566406 95.574219 193.683594 92.738281 187.929688 90.601562 C 182.644531 88.640625 176.0625 87.835938 170.425781 88.222656 C 161.949219 88.808594 153.613281 90.617188 145.429688 92.839844 C 137.355469 95.027344 129.195312 97.097656 121.691406 100.890625 C 114.636719 104.457031 108.910156 110.144531 102.847656 115.164062 C 101.078125 116.628906 99.335938 118.125 97.617188 119.648438 C 96.394531 120.730469 95.1875 121.828125 94.003906 122.949219 C 93.6875 123.246094 93.300781 123.460938 92.878906 123.5625 L 85.808594 125.300781 C 77.949219 127.230469 82.246094 141.695312 83.710938 145.984375 C 83.96875 146.742188 83.863281 147.574219 83.429688 148.246094 L 83.425781 148.25 C 82.742188 149.277344 82.570312 150.566406 82.964844 151.738281 C 88.027344 166.933594 103.96875 162.101562 106.066406 161.390625 C 104.808594 159.613281 103.90625 157.628906 103.378906 155.492188 C 102.820312 153.207031 102.722656 150.878906 103.089844 148.570312 C 103.449219 146.347656 104.222656 144.234375 105.398438 142.300781 C 106.570312 140.363281 108.082031 138.695312 109.886719 137.347656 C 111.757812 135.953125 113.867188 134.957031 116.152344 134.398438 C 118.4375 133.835938 120.765625 133.738281 123.070312 134.109375 C 125.296875 134.464844 127.410156 135.242188 129.34375 136.414062 C 131.28125 137.585938 132.945312 139.097656 134.296875 140.902344 C 135.691406 142.777344 136.6875 144.886719 137.246094 147.167969 C 137.773438 149.304688 137.890625 151.480469 137.601562 153.636719 L 214.675781 134.75 C 213.398438 132.960938 212.488281 130.964844 211.957031 128.808594 C 211.398438 126.527344 211.300781 124.195312 211.667969 121.890625 C 212.027344 119.664062 212.804688 117.554688 213.976562 115.617188 C 215.148438 113.683594 216.660156 112.015625 218.464844 110.667969 C 220.339844 109.269531 222.445312 108.277344 224.730469 107.714844 C 227.015625 107.152344 229.34375 107.058594 231.652344 107.425781 C 233.878906 107.785156 235.988281 108.5625 237.925781 109.734375 C 239.859375 110.90625 241.527344 112.414062 242.875 114.222656 C 244.269531 116.09375 245.265625 118.203125 245.828125 120.488281 C 246.355469 122.648438 246.472656 124.847656 246.171875 127.03125 L 254.261719 125.046875 C 259.371094 123.792969 261.140625 120.941406 261.457031 120.359375 C 261.511719 120.253906 261.570312 120.148438 261.632812 120.046875 C 264.605469 114.910156 263.132812 108.863281 262.386719 106.554688 " fill-opacity="1" fill-rule="nonzero"/></g></g></g></g><g clip-path="url(#46d01c7fca)"><g clip-path="url(#179d6456d6)"><g clip-path="url(#5dbd91f391)"><path fill="#153e76" d="M 117.121094 138.34375 C 109.949219 140.105469 105.5625 147.347656 107.328125 154.523438 C 109.085938 161.683594 116.34375 166.078125 123.503906 164.316406 C 130.675781 162.554688 135.0625 155.3125 133.300781 148.140625 C 131.539062 140.976562 124.28125 136.582031 117.121094 138.34375 " fill-opacity="1" fill-rule="nonzero"/></g></g></g><g clip-path="url(#247c6d2027)"><g clip-path="url(#b98e10498b)"><g clip-path="url(#6ed7578eb3)"><path fill="#153e76" d="M 225.703125 111.660156 C 218.53125 113.425781 214.144531 120.667969 215.90625 127.839844 C 217.664062 135 224.921875 139.394531 232.085938 137.636719 C 239.257812 135.875 243.640625 128.628906 241.878906 121.457031 C 240.121094 114.296875 232.863281 109.902344 225.703125 111.660156 " fill-opacity="1" fill-rule="nonzero"/></g></g></g><g clip-path="url(#500da6b5a7)"><path fill="#153e76" d="M 80.464844 200.414062 L 233.914062 200.414062 C 235.128906 200.417969 236.339844 200.371094 237.550781 200.273438 C 238.757812 200.175781 239.960938 200.027344 241.160156 199.828125 C 242.355469 199.628906 243.542969 199.378906 244.71875 199.078125 C 245.894531 198.777344 247.054688 198.429688 248.199219 198.03125 C 249.347656 197.632812 250.472656 197.1875 251.582031 196.691406 C 252.691406 196.199219 253.777344 195.660156 254.839844 195.074219 C 255.902344 194.488281 256.9375 193.859375 257.949219 193.1875 C 258.957031 192.515625 259.9375 191.800781 260.886719 191.046875 C 261.835938 190.289062 262.753906 189.496094 263.632812 188.664062 C 264.515625 187.832031 265.363281 186.960938 266.171875 186.058594 C 266.980469 185.152344 267.75 184.21875 268.480469 183.25 C 269.210938 182.277344 269.898438 181.28125 270.542969 180.253906 C 271.1875 179.226562 271.789062 178.171875 272.34375 177.09375 C 272.902344 176.015625 273.414062 174.917969 273.875 173.796875 C 274.339844 172.675781 274.753906 171.535156 275.121094 170.378906 C 275.488281 169.222656 275.808594 168.054688 276.078125 166.871094 L 300.117188 62.726562 C 300.199219 62.359375 300.261719 61.992188 300.304688 61.621094 C 300.347656 61.246094 300.371094 60.875 300.371094 60.5 C 300.371094 60.125 300.351562 59.75 300.3125 59.378906 C 300.269531 59.003906 300.207031 58.636719 300.125 58.269531 C 300.042969 57.90625 299.9375 57.542969 299.816406 57.191406 C 299.691406 56.835938 299.550781 56.492188 299.386719 56.152344 C 299.226562 55.816406 299.046875 55.488281 298.847656 55.167969 C 298.648438 54.851562 298.429688 54.546875 298.195312 54.253906 C 297.964844 53.960938 297.714844 53.679688 297.449219 53.414062 C 297.183594 53.148438 296.90625 52.898438 296.613281 52.667969 C 296.320312 52.433594 296.015625 52.214844 295.695312 52.015625 C 295.378906 51.816406 295.050781 51.636719 294.714844 51.472656 C 294.375 51.308594 294.03125 51.167969 293.675781 51.042969 C 293.324219 50.917969 292.964844 50.816406 292.597656 50.730469 C 292.234375 50.648438 291.863281 50.585938 291.492188 50.542969 C 291.117188 50.503906 290.746094 50.480469 290.371094 50.480469 L 57.804688 50.480469 L 50.21875 18.207031 C 50.089844 17.660156 49.917969 17.132812 49.699219 16.617188 C 49.484375 16.101562 49.222656 15.605469 48.925781 15.132812 C 48.625 14.660156 48.285156 14.21875 47.910156 13.800781 C 47.535156 13.386719 47.128906 13.003906 46.691406 12.660156 C 46.253906 12.3125 45.789062 12.003906 45.296875 11.734375 C 44.808594 11.464844 44.296875 11.238281 43.769531 11.054688 C 43.242188 10.871094 42.699219 10.730469 42.148438 10.640625 C 41.597656 10.546875 41.042969 10.5 40.480469 10.5 L 10.496094 10.5 C 9.839844 10.5 9.1875 10.5625 8.546875 10.691406 C 7.902344 10.820312 7.277344 11.007812 6.671875 11.261719 C 6.0625 11.511719 5.488281 11.820312 4.941406 12.183594 C 4.398438 12.550781 3.890625 12.964844 3.425781 13.425781 C 2.964844 13.890625 2.550781 14.398438 2.183594 14.941406 C 1.820312 15.488281 1.511719 16.0625 1.261719 16.671875 C 1.007812 17.277344 0.820312 17.902344 0.691406 18.546875 C 0.5625 19.1875 0.5 19.839844 0.5 20.496094 C 0.5 21.152344 0.5625 21.800781 0.691406 22.445312 C 0.820312 23.089844 1.007812 23.714844 1.261719 24.320312 C 1.511719 24.925781 1.820312 25.503906 2.183594 26.046875 C 2.550781 26.59375 2.964844 27.097656 3.425781 27.5625 C 3.890625 28.027344 4.398438 28.441406 4.941406 28.804688 C 5.488281 29.171875 6.0625 29.480469 6.671875 29.730469 C 7.277344 29.980469 7.902344 30.171875 8.546875 30.300781 C 9.1875 30.425781 9.839844 30.492188 10.496094 30.492188 L 32.566406 30.492188 L 68.46875 182.984375 C 66.910156 183.671875 65.421875 184.488281 64 185.429688 C 62.582031 186.371094 61.253906 187.429688 60.011719 188.597656 C 58.773438 189.765625 57.640625 191.035156 56.617188 192.394531 C 55.59375 193.757812 54.691406 195.195312 53.914062 196.714844 C 53.136719 198.230469 52.492188 199.800781 51.980469 201.425781 C 51.46875 203.050781 51.101562 204.710938 50.871094 206.398438 C 50.644531 208.085938 50.5625 209.78125 50.621094 211.484375 C 50.683594 213.1875 50.886719 214.875 51.238281 216.542969 C 51.585938 218.210938 52.074219 219.835938 52.699219 221.421875 C 53.324219 223.007812 54.078125 224.527344 54.964844 225.984375 C 55.851562 227.441406 56.851562 228.8125 57.972656 230.097656 C 59.089844 231.382812 60.308594 232.5625 61.628906 233.640625 C 62.949219 234.71875 64.351562 235.675781 65.835938 236.515625 C 67.320312 237.355469 68.863281 238.0625 70.464844 238.636719 C 72.070312 239.210938 73.710938 239.648438 75.390625 239.941406 C 77.070312 240.238281 78.761719 240.390625 80.464844 240.398438 L 270.378906 240.398438 C 271.035156 240.398438 271.683594 240.332031 272.328125 240.203125 C 272.972656 240.078125 273.597656 239.886719 274.203125 239.636719 C 274.808594 239.386719 275.386719 239.078125 275.933594 238.710938 C 276.476562 238.347656 276.984375 237.933594 277.445312 237.46875 C 277.910156 237.003906 278.324219 236.5 278.691406 235.953125 C 279.054688 235.410156 279.363281 234.832031 279.613281 234.226562 C 279.863281 233.621094 280.054688 232.996094 280.183594 232.351562 C 280.308594 231.707031 280.375 231.058594 280.375 230.402344 C 280.375 229.746094 280.308594 229.09375 280.183594 228.453125 C 280.054688 227.808594 279.863281 227.183594 279.613281 226.578125 C 279.363281 225.96875 279.054688 225.394531 278.691406 224.847656 C 278.324219 224.300781 277.910156 223.796875 277.445312 223.332031 C 276.984375 222.871094 276.476562 222.453125 275.933594 222.089844 C 275.386719 221.726562 274.808594 221.417969 274.203125 221.167969 C 273.597656 220.914062 272.972656 220.726562 272.328125 220.597656 C 271.683594 220.46875 271.035156 220.40625 270.378906 220.40625 L 80.464844 220.40625 C 79.808594 220.40625 79.15625 220.339844 78.515625 220.214844 C 77.871094 220.085938 77.246094 219.894531 76.640625 219.644531 C 76.03125 219.394531 75.457031 219.085938 74.910156 218.722656 C 74.363281 218.355469 73.859375 217.941406 73.394531 217.476562 C 72.933594 217.015625 72.519531 216.507812 72.152344 215.964844 C 71.789062 215.417969 71.480469 214.839844 71.230469 214.234375 C 70.976562 213.628906 70.789062 213.003906 70.660156 212.359375 C 70.53125 211.714844 70.46875 211.066406 70.46875 210.410156 C 70.46875 209.753906 70.53125 209.105469 70.660156 208.460938 C 70.789062 207.816406 70.976562 207.191406 71.230469 206.585938 C 71.480469 205.980469 71.789062 205.402344 72.152344 204.855469 C 72.519531 204.3125 72.933594 203.804688 73.394531 203.34375 C 73.859375 202.878906 74.363281 202.464844 74.910156 202.097656 C 75.457031 201.734375 76.03125 201.425781 76.640625 201.175781 C 77.246094 200.925781 77.871094 200.734375 78.515625 200.605469 C 79.15625 200.480469 79.808594 200.414062 80.464844 200.414062 Z M 277.804688 70.472656 L 256.59375 162.371094 C 256.304688 163.648438 255.914062 164.890625 255.414062 166.097656 C 254.914062 167.308594 254.316406 168.46875 253.621094 169.574219 C 252.925781 170.683594 252.144531 171.726562 251.273438 172.699219 C 250.398438 173.675781 249.453125 174.570312 248.429688 175.382812 C 247.40625 176.199219 246.320312 176.921875 245.175781 177.554688 C 244.027344 178.183594 242.835938 178.714844 241.601562 179.144531 C 240.367188 179.570312 239.101562 179.894531 237.8125 180.109375 C 236.523438 180.324219 235.222656 180.429688 233.914062 180.421875 L 88.378906 180.421875 L 62.472656 70.472656 Z M 277.804688 70.472656 " fill-opacity="1" fill-rule="nonzero"/></g><g clip-path="url(#5d778d0d3f)"><path fill="#153e76" d="M 100.457031 250.390625 C 99.472656 250.390625 98.492188 250.441406 97.515625 250.535156 C 96.539062 250.632812 95.566406 250.777344 94.605469 250.96875 C 93.640625 251.160156 92.691406 251.398438 91.75 251.683594 C 90.8125 251.96875 89.886719 252.300781 88.980469 252.675781 C 88.074219 253.050781 87.1875 253.46875 86.320312 253.933594 C 85.453125 254.394531 84.613281 254.898438 83.796875 255.445312 C 82.980469 255.992188 82.191406 256.574219 81.433594 257.199219 C 80.671875 257.820312 79.945312 258.480469 79.25 259.175781 C 78.558594 259.871094 77.898438 260.597656 77.273438 261.355469 C 76.652344 262.113281 76.066406 262.902344 75.523438 263.71875 C 74.976562 264.535156 74.472656 265.378906 74.007812 266.242188 C 73.546875 267.109375 73.128906 267.996094 72.75 268.902344 C 72.375 269.8125 72.042969 270.734375 71.761719 271.675781 C 71.476562 272.613281 71.238281 273.566406 71.042969 274.527344 C 70.851562 275.492188 70.710938 276.460938 70.613281 277.441406 C 70.515625 278.417969 70.46875 279.398438 70.46875 280.378906 C 70.46875 281.359375 70.515625 282.339844 70.613281 283.316406 C 70.710938 284.296875 70.851562 285.265625 71.042969 286.230469 C 71.238281 287.191406 71.476562 288.144531 71.761719 289.082031 C 72.042969 290.023438 72.375 290.945312 72.75 291.855469 C 73.128906 292.761719 73.546875 293.648438 74.007812 294.515625 C 74.472656 295.378906 74.976562 296.222656 75.523438 297.039062 C 76.066406 297.855469 76.652344 298.644531 77.273438 299.402344 C 77.898438 300.160156 78.558594 300.886719 79.25 301.582031 C 79.945312 302.277344 80.671875 302.9375 81.433594 303.558594 C 82.191406 304.183594 82.980469 304.765625 83.796875 305.3125 C 84.613281 305.855469 85.453125 306.363281 86.320312 306.824219 C 87.1875 307.289062 88.074219 307.707031 88.980469 308.082031 C 89.886719 308.457031 90.8125 308.789062 91.75 309.074219 C 92.691406 309.359375 93.640625 309.597656 94.605469 309.789062 C 95.566406 309.980469 96.539062 310.125 97.515625 310.222656 C 98.492188 310.316406 99.472656 310.367188 100.457031 310.367188 C 101.4375 310.367188 102.417969 310.316406 103.394531 310.222656 C 104.371094 310.125 105.34375 309.980469 106.304688 309.789062 C 107.269531 309.597656 108.21875 309.359375 109.160156 309.074219 C 110.097656 308.789062 111.023438 308.457031 111.929688 308.082031 C 112.835938 307.707031 113.722656 307.289062 114.589844 306.824219 C 115.457031 306.363281 116.296875 305.855469 117.113281 305.3125 C 117.929688 304.765625 118.71875 304.183594 119.476562 303.558594 C 120.238281 302.9375 120.964844 302.277344 121.660156 301.582031 C 122.351562 300.886719 123.011719 300.160156 123.636719 299.402344 C 124.257812 298.644531 124.84375 297.855469 125.386719 297.039062 C 125.933594 296.222656 126.4375 295.378906 126.902344 294.515625 C 127.363281 293.648438 127.785156 292.761719 128.160156 291.855469 C 128.535156 290.945312 128.867188 290.023438 129.152344 289.082031 C 129.4375 288.144531 129.675781 287.191406 129.867188 286.230469 C 130.058594 285.265625 130.199219 284.296875 130.296875 283.316406 C 130.394531 282.339844 130.441406 281.359375 130.441406 280.378906 C 130.441406 279.398438 130.394531 278.417969 130.296875 277.441406 C 130.199219 276.460938 130.058594 275.492188 129.867188 274.527344 C 129.675781 273.566406 129.4375 272.613281 129.152344 271.675781 C 128.867188 270.734375 128.535156 269.8125 128.160156 268.902344 C 127.785156 267.996094 127.363281 267.109375 126.902344 266.242188 C 126.4375 265.378906 125.933594 264.535156 125.386719 263.71875 C 124.84375 262.902344 124.257812 262.113281 123.636719 261.355469 C 123.011719 260.597656 122.351562 259.871094 121.660156 259.175781 C 120.964844 258.480469 120.238281 257.820312 119.476562 257.199219 C 118.71875 256.574219 117.929688 255.992188 117.113281 255.445312 C 116.296875 254.898438 115.457031 254.394531 114.589844 253.933594 C 113.722656 253.46875 112.835938 253.050781 111.929688 252.675781 C 111.023438 252.300781 110.097656 251.96875 109.160156 251.683594 C 108.21875 251.398438 107.269531 251.160156 106.304688 250.96875 C 105.34375 250.777344 104.371094 250.632812 103.394531 250.535156 C 102.417969 250.441406 101.4375 250.390625 100.457031 250.390625 Z M 100.457031 290.375 C 99.796875 290.375 99.148438 290.308594 98.503906 290.183594 C 97.863281 290.054688 97.238281 289.863281 96.628906 289.613281 C 96.023438 289.363281 95.449219 289.054688 94.902344 288.691406 C 94.355469 288.324219 93.851562 287.910156 93.386719 287.445312 C 92.921875 286.984375 92.507812 286.476562 92.144531 285.933594 C 91.78125 285.386719 91.472656 284.808594 91.21875 284.203125 C 90.96875 283.597656 90.78125 282.972656 90.652344 282.328125 C 90.523438 281.683594 90.460938 281.035156 90.460938 280.378906 C 90.460938 279.722656 90.523438 279.074219 90.652344 278.429688 C 90.78125 277.785156 90.96875 277.160156 91.21875 276.554688 C 91.472656 275.949219 91.78125 275.371094 92.144531 274.824219 C 92.507812 274.28125 92.921875 273.773438 93.386719 273.3125 C 93.851562 272.847656 94.355469 272.433594 94.902344 272.066406 C 95.449219 271.703125 96.023438 271.394531 96.628906 271.144531 C 97.238281 270.894531 97.863281 270.703125 98.503906 270.574219 C 99.148438 270.449219 99.796875 270.382812 100.457031 270.382812 C 101.113281 270.382812 101.761719 270.449219 102.40625 270.574219 C 103.050781 270.703125 103.675781 270.894531 104.28125 271.144531 C 104.886719 271.394531 105.460938 271.703125 106.007812 272.066406 C 106.554688 272.433594 107.058594 272.847656 107.523438 273.3125 C 107.988281 273.773438 108.402344 274.28125 108.765625 274.824219 C 109.128906 275.371094 109.4375 275.949219 109.691406 276.554688 C 109.941406 277.160156 110.128906 277.785156 110.257812 278.429688 C 110.386719 279.074219 110.449219 279.722656 110.449219 280.378906 C 110.449219 281.035156 110.386719 281.683594 110.257812 282.328125 C 110.128906 282.972656 109.941406 283.597656 109.691406 284.203125 C 109.4375 284.808594 109.128906 285.386719 108.765625 285.933594 C 108.402344 286.476562 107.988281 286.984375 107.523438 287.445312 C 107.058594 287.910156 106.554688 288.324219 106.007812 288.691406 C 105.460938 289.054688 104.886719 289.363281 104.28125 289.613281 C 103.675781 289.863281 103.050781 290.054688 102.40625 290.183594 C 101.761719 290.308594 101.113281 290.375 100.457031 290.375 Z M 100.457031 290.375 " fill-opacity="1" fill-rule="nonzero"/></g><g clip-path="url(#e0bda42190)"><path fill="#153e76" d="M 220.402344 250.390625 C 219.417969 250.390625 218.441406 250.441406 217.460938 250.535156 C 216.484375 250.632812 215.515625 250.777344 214.550781 250.96875 C 213.589844 251.160156 212.636719 251.398438 211.695312 251.683594 C 210.757812 251.96875 209.832031 252.300781 208.925781 252.675781 C 208.019531 253.050781 207.132812 253.46875 206.265625 253.933594 C 205.398438 254.394531 204.558594 254.898438 203.742188 255.445312 C 202.925781 255.992188 202.136719 256.574219 201.378906 257.199219 C 200.617188 257.820312 199.890625 258.480469 199.199219 259.175781 C 198.503906 259.871094 197.84375 260.597656 197.222656 261.355469 C 196.597656 262.113281 196.015625 262.902344 195.46875 263.71875 C 194.921875 264.535156 194.417969 265.378906 193.957031 266.242188 C 193.492188 267.109375 193.074219 267.996094 192.699219 268.902344 C 192.320312 269.8125 191.992188 270.734375 191.707031 271.675781 C 191.421875 272.613281 191.183594 273.566406 190.992188 274.527344 C 190.800781 275.492188 190.65625 276.460938 190.558594 277.441406 C 190.464844 278.417969 190.414062 279.398438 190.414062 280.378906 C 190.414062 281.359375 190.464844 282.339844 190.558594 283.316406 C 190.65625 284.296875 190.800781 285.265625 190.992188 286.230469 C 191.183594 287.191406 191.421875 288.144531 191.707031 289.082031 C 191.992188 290.023438 192.320312 290.945312 192.699219 291.855469 C 193.074219 292.761719 193.492188 293.648438 193.957031 294.515625 C 194.417969 295.378906 194.921875 296.222656 195.46875 297.039062 C 196.015625 297.855469 196.597656 298.644531 197.222656 299.402344 C 197.84375 300.160156 198.503906 300.886719 199.199219 301.582031 C 199.890625 302.277344 200.617188 302.9375 201.378906 303.558594 C 202.136719 304.183594 202.925781 304.765625 203.742188 305.3125 C 204.558594 305.855469 205.398438 306.363281 206.265625 306.824219 C 207.132812 307.289062 208.019531 307.707031 208.925781 308.082031 C 209.832031 308.457031 210.757812 308.789062 211.695312 309.074219 C 212.636719 309.359375 213.589844 309.597656 214.550781 309.789062 C 215.515625 309.980469 216.484375 310.125 217.460938 310.222656 C 218.441406 310.316406 219.417969 310.367188 220.402344 310.367188 C 221.382812 310.367188 222.363281 310.316406 223.339844 310.222656 C 224.316406 310.125 225.289062 309.980469 226.25 309.789062 C 227.214844 309.597656 228.167969 309.359375 229.105469 309.074219 C 230.046875 308.789062 230.96875 308.457031 231.875 308.082031 C 232.785156 307.707031 233.671875 307.289062 234.535156 306.824219 C 235.402344 306.363281 236.246094 305.855469 237.0625 305.3125 C 237.878906 304.765625 238.664062 304.183594 239.425781 303.558594 C 240.183594 302.9375 240.910156 302.277344 241.605469 301.582031 C 242.300781 300.886719 242.957031 300.160156 243.582031 299.402344 C 244.203125 298.644531 244.789062 297.855469 245.335938 297.039062 C 245.878906 296.222656 246.382812 295.378906 246.847656 294.515625 C 247.308594 293.648438 247.730469 292.761719 248.105469 291.855469 C 248.480469 290.945312 248.8125 290.023438 249.097656 289.082031 C 249.382812 288.144531 249.621094 287.191406 249.8125 286.230469 C 250.003906 285.265625 250.148438 284.296875 250.242188 283.316406 C 250.339844 282.339844 250.386719 281.359375 250.386719 280.378906 C 250.386719 279.398438 250.339844 278.417969 250.242188 277.441406 C 250.148438 276.460938 250.003906 275.492188 249.8125 274.527344 C 249.621094 273.566406 249.382812 272.613281 249.097656 271.675781 C 248.8125 270.734375 248.480469 269.8125 248.105469 268.902344 C 247.730469 267.996094 247.308594 267.109375 246.847656 266.242188 C 246.382812 265.378906 245.878906 264.535156 245.335938 263.71875 C 244.789062 262.902344 244.203125 262.113281 243.582031 261.355469 C 242.957031 260.597656 242.300781 259.871094 241.605469 259.175781 C 240.910156 258.480469 240.183594 257.820312 239.425781 257.199219 C 238.664062 256.574219 237.878906 255.992188 237.0625 255.445312 C 236.246094 254.898438 235.402344 254.394531 234.535156 253.933594 C 233.671875 253.46875 232.785156 253.050781 231.875 252.675781 C 230.96875 252.300781 230.046875 251.96875 229.105469 251.683594 C 228.167969 251.398438 227.214844 251.160156 226.25 250.96875 C 225.289062 250.777344 224.316406 250.632812 223.339844 250.535156 C 222.363281 250.441406 221.382812 250.390625 220.402344 250.390625 Z M 220.402344 290.375 C 219.746094 290.375 219.09375 290.308594 218.453125 290.183594 C 217.808594 290.054688 217.183594 289.863281 216.578125 289.613281 C 215.96875 289.363281 215.394531 289.054688 214.847656 288.691406 C 214.300781 288.324219 213.796875 287.910156 213.332031 287.445312 C 212.871094 286.984375 212.453125 286.476562 212.089844 285.933594 C 211.726562 285.386719 211.417969 284.808594 211.167969 284.203125 C 210.914062 283.597656 210.726562 282.972656 210.597656 282.328125 C 210.46875 281.683594 210.40625 281.035156 210.40625 280.378906 C 210.40625 279.722656 210.46875 279.074219 210.597656 278.429688 C 210.726562 277.785156 210.914062 277.160156 211.167969 276.554688 C 211.417969 275.949219 211.726562 275.371094 212.089844 274.824219 C 212.453125 274.28125 212.871094 273.773438 213.332031 273.3125 C 213.796875 272.847656 214.300781 272.433594 214.847656 272.066406 C 215.394531 271.703125 215.96875 271.394531 216.578125 271.144531 C 217.183594 270.894531 217.808594 270.703125 218.453125 270.574219 C 219.09375 270.449219 219.746094 270.382812 220.402344 270.382812 C 221.058594 270.382812 221.707031 270.449219 222.351562 270.574219 C 222.996094 270.703125 223.621094 270.894531 224.226562 271.144531 C 224.832031 271.394531 225.410156 271.703125 225.953125 272.066406 C 226.5 272.433594 227.003906 272.847656 227.46875 273.3125 C 227.933594 273.773438 228.347656 274.28125 228.710938 274.824219 C 229.078125 275.371094 229.386719 275.949219 229.636719 276.554688 C 229.886719 277.160156 230.078125 277.785156 230.203125 278.429688 C 230.332031 279.074219 230.398438 279.722656 230.398438 280.378906 C 230.398438 281.035156 230.332031 281.683594 230.203125 282.328125 C 230.078125 282.972656 229.886719 283.597656 229.636719 284.203125 C 229.386719 284.808594 229.078125 285.386719 228.710938 285.933594 C 228.347656 286.476562 227.933594 286.984375 227.46875 287.445312 C 227.003906 287.910156 226.5 288.324219 225.953125 288.691406 C 225.410156 289.054688 224.832031 289.363281 224.226562 289.613281 C 223.621094 289.863281 222.996094 290.054688 222.351562 290.183594 C 221.707031 290.308594 221.058594 290.375 220.402344 290.375 Z M 220.402344 290.375 " fill-opacity="1" fill-rule="nonzero"/></g></g></g></svg>