<svg xmlns="http://www.w3.org/2000/svg" xmlns:xlink="http://www.w3.org/1999/xlink" width="500" zoomAndPan="magnify" viewBox="0 0 375 374.999991" height="500" preserveAspectRatio="xMidYMid meet" version="1.0"><defs><clipPath id="132d3d5c7e"><path d="M 145.605469 0.5 L 274.238281 0.5 L 274.238281 151 L 145.605469 151 Z M 145.605469 0.5 " clip-rule="nonzero"/></clipPath><clipPath id="95c94f8bb0"><path d="M 0.769531 130.125 L 232.09375 130.125 L 232.09375 300.375 L 0.769531 300.375 Z M 0.769531 130.125 " clip-rule="nonzero"/></clipPath><clipPath id="c36a4950aa"><rect x="0" width="275" y="0" height="301"/></clipPath></defs><g transform="matrix(1, 0, 0, 1, 50, 37)"><g clip-path="url(#c36a4950aa)"><g clip-path="url(#132d3d5c7e)"><path fill="#153e76" d="M 209.851562 150.355469 C 209.066406 150.355469 208.289062 150.183594 207.5625 149.839844 C 169.941406 132.054688 145.628906 93.671875 145.628906 52.054688 L 145.628906 21.90625 C 145.628906 19.492188 147.242188 17.378906 149.574219 16.742188 L 208.445312 0.6875 C 209.363281 0.4375 210.335938 0.4375 211.257812 0.6875 L 270.128906 16.742188 C 272.457031 17.378906 274.074219 19.492188 274.074219 21.90625 L 274.074219 52.054688 C 274.074219 93.671875 249.761719 132.054688 212.140625 149.839844 C 211.414062 150.183594 210.636719 150.355469 209.851562 150.355469 Z M 156.332031 25.996094 L 156.332031 52.054688 C 156.332031 88.703125 177.253906 122.570312 209.851562 139.046875 C 242.449219 122.570312 263.371094 88.703125 263.371094 52.054688 L 263.371094 25.996094 L 209.851562 11.398438 Z M 156.332031 25.996094 " fill-opacity="1" fill-rule="nonzero"/></g><path fill="#153e76" d="M 199.148438 96.835938 C 197.777344 96.835938 196.410156 96.3125 195.363281 95.265625 L 173.957031 73.859375 C 171.867188 71.769531 171.867188 68.382812 173.957031 66.289062 C 176.046875 64.199219 179.433594 64.199219 181.523438 66.289062 L 199.148438 83.914062 L 238.179688 44.882812 C 240.269531 42.792969 243.65625 42.792969 245.746094 44.882812 C 247.839844 46.972656 247.835938 50.359375 245.746094 52.449219 L 202.933594 95.265625 C 201.886719 96.3125 200.515625 96.835938 199.148438 96.835938 Z M 199.148438 96.835938 " fill-opacity="1" fill-rule="nonzero"/><g clip-path="url(#95c94f8bb0)"><path fill="#153e76" d="M 220.292969 221.859375 C 216.042969 228.453125 198.75 235.207031 196.066406 236.226562 C 195.894531 236.292969 195.722656 236.367188 195.554688 236.449219 C 195.054688 236.683594 193.414062 237.132812 191.007812 234.570312 C 188.894531 232.320312 185.253906 226.621094 183.402344 223.640625 C 182.800781 222.667969 183.234375 221.390625 184.300781 220.984375 L 216.574219 208.707031 C 217.261719 208.449219 218.03125 208.636719 218.519531 209.183594 C 220.292969 211.179688 223.882812 216.289062 220.292969 221.859375 Z M 211.816406 270.300781 C 209.582031 270.941406 206.382812 271.378906 201.910156 271.113281 C 200.324219 271.015625 198.808594 270.417969 197.585938 269.402344 L 187.476562 261.007812 C 185.964844 259.75 186.230469 257.355469 187.984375 256.46875 C 191.792969 254.550781 198.472656 252.078125 206.738281 252.722656 C 210.25 253 213.296875 255.234375 214.585938 258.511719 C 215.136719 259.914062 215.652344 261.609375 216 263.597656 C 216.527344 266.574219 214.722656 269.472656 211.816406 270.300781 Z M 181.636719 271.699219 L 51.226562 271.699219 C 49.929688 271.699219 49.25 270.886719 50.132812 270.386719 L 56.011719 267.03125 C 62.675781 263.597656 70.40625 263.289062 73.46875 263.324219 C 76.890625 263.359375 80.3125 263.367188 83.738281 263.367188 L 149.128906 263.367188 C 152.550781 263.367188 155.972656 263.359375 159.398438 263.324219 C 162.457031 263.289062 170.1875 263.597656 176.855469 267.03125 L 182.730469 270.386719 C 183.613281 270.886719 182.933594 271.699219 181.636719 271.699219 Z M 49.460938 223.640625 C 47.609375 226.621094 43.96875 232.320312 41.855469 234.570312 C 39.445312 237.132812 37.808594 236.683594 37.308594 236.449219 C 37.140625 236.367188 36.96875 236.292969 36.796875 236.226562 C 34.113281 235.207031 16.824219 228.453125 12.570312 221.859375 C 8.980469 216.289062 12.574219 211.179688 14.34375 209.183594 C 14.828125 208.636719 15.605469 208.449219 16.289062 208.707031 L 48.5625 220.984375 C 49.632812 221.390625 50.0625 222.667969 49.460938 223.640625 Z M 45.390625 261.007812 L 35.277344 269.402344 C 34.054688 270.417969 32.539062 271.015625 30.953125 271.113281 C 26.480469 271.378906 23.285156 270.941406 21.050781 270.300781 C 18.140625 269.472656 16.335938 266.574219 16.863281 263.597656 C 17.214844 261.609375 17.730469 259.914062 18.277344 258.511719 C 19.566406 255.234375 22.617188 253 26.125 252.722656 C 34.394531 252.078125 41.070312 254.550781 44.878906 256.46875 C 46.632812 257.355469 46.898438 259.75 45.390625 261.007812 Z M 175.617188 242.453125 C 173.042969 244.742188 168.851562 247.207031 162.226562 248.320312 C 162.226562 248.320312 145.207031 251.34375 116.429688 251.34375 C 87.65625 251.34375 70.636719 248.320312 70.636719 248.320312 C 64.011719 247.207031 59.820312 244.742188 57.246094 242.453125 C 54.722656 240.210938 54.179688 236.480469 55.945312 233.605469 L 57.351562 231.328125 C 59.980469 227.050781 64.335938 224.117188 69.292969 223.3125 C 79.921875 221.59375 96.707031 221.464844 107.113281 221.585938 C 113.253906 221.65625 119.394531 221.660156 125.539062 221.585938 C 135.929688 221.464844 152.867188 221.582031 163.574219 223.3125 C 168.53125 224.117188 172.882812 227.050781 175.515625 231.328125 L 176.917969 233.605469 C 178.6875 236.480469 178.140625 240.210938 175.617188 242.453125 Z M 39.082031 173.261719 C 40.191406 169.792969 43.824219 160.835938 55.113281 145.03125 C 57.441406 141.769531 61.109375 139.722656 65.109375 139.457031 C 75.449219 138.765625 96.933594 137.507812 116.429688 137.507812 C 135.929688 137.507812 157.417969 138.765625 167.753906 139.457031 C 171.753906 139.722656 175.421875 141.769531 177.75 145.03125 C 189.035156 160.835938 192.675781 169.792969 193.78125 173.261719 C 194.046875 174.09375 193.421875 174.9375 192.546875 174.925781 L 116.429688 173.757812 L 40.316406 174.925781 C 39.445312 174.9375 38.816406 174.09375 39.082031 173.261719 Z M 232.09375 274.0625 L 231.152344 219.164062 C 230.554688 203.035156 208.183594 182.386719 208.183594 182.386719 C 210.460938 181.152344 212.988281 180.4375 215.578125 180.320312 C 219.238281 180.160156 224.4375 178.886719 223.1875 172.757812 C 221.804688 166 211.464844 164.386719 205.972656 164.007812 C 204.25 163.890625 202.890625 165.453125 203.242188 167.144531 L 205.160156 176.464844 C 205.160156 176.46875 205.160156 176.476562 205.164062 176.484375 C 205.300781 177.179688 204.34375 177.535156 203.980469 176.925781 L 202.273438 174.050781 C 188.75 150.859375 182.851562 142.640625 177.890625 138.386719 C 175.644531 136.457031 172.949219 135.117188 170.058594 134.476562 C 148.632812 129.71875 116.429688 130.136719 116.429688 130.136719 C 116.429688 130.136719 84.230469 129.71875 62.804688 134.476562 C 59.914062 135.117188 57.21875 136.457031 54.972656 138.386719 C 50.011719 142.640625 44.117188 150.859375 30.59375 174.050781 L 28.882812 176.925781 C 28.519531 177.535156 27.5625 177.179688 27.703125 176.484375 C 27.703125 176.476562 27.703125 176.46875 27.707031 176.464844 L 29.625 167.144531 C 29.972656 165.453125 28.613281 163.890625 26.890625 164.007812 C 21.398438 164.386719 11.058594 166 9.679688 172.757812 C 8.425781 178.886719 13.625 180.160156 17.289062 180.320312 C 19.878906 180.4375 22.402344 181.152344 24.683594 182.386719 C 24.683594 182.386719 2.308594 203.035156 1.710938 219.164062 L 0.773438 274.0625 C 0.734375 276.339844 1.632812 278.519531 3.238281 280.082031 L 3.238281 286.484375 C 3.238281 294.125 9.488281 300.375 17.132812 300.375 L 42.617188 300.375 C 47.796875 300.375 52.035156 296.136719 52.035156 290.957031 L 52.035156 286.980469 L 180.828125 286.980469 L 180.828125 290.957031 C 180.828125 296.136719 185.066406 300.375 190.246094 300.375 L 215.734375 300.375 C 223.375 300.375 229.625 294.125 229.625 286.484375 L 229.625 280.082031 C 231.230469 278.519531 232.132812 276.339844 232.09375 274.0625 " fill-opacity="1" fill-rule="nonzero"/></g></g></g></svg>