<svg xmlns="http://www.w3.org/2000/svg" xmlns:xlink="http://www.w3.org/1999/xlink" width="500" zoomAndPan="magnify" viewBox="0 0 375 374.999991" height="500" preserveAspectRatio="xMidYMid meet" version="1.0"><defs><clipPath id="24b194f8c9"><path d="M 37.5 49.3125 L 337.5 49.3125 L 337.5 326 L 37.5 326 Z M 37.5 49.3125 " clip-rule="nonzero"/></clipPath></defs><g clip-path="url(#24b194f8c9)"><path fill="#153e76" d="M 143.207031 178.183594 C 141.15625 176.808594 138.5 175.039062 135.070312 172.785156 C 133.910156 172.019531 133.316406 170.71875 133.394531 169.421875 L 133.386719 169.421875 C 133.390625 169.394531 133.8125 159.191406 139.097656 152.574219 C 140.09375 151.316406 141.738281 150.878906 143.175781 151.34375 L 143.179688 151.335938 L 160.902344 157.128906 C 162.351562 157.597656 163.316406 158.871094 163.46875 160.296875 C 163.71875 161.609375 163.921875 162.851562 164.089844 164.019531 L 183.597656 139.421875 C 184.277344 138.460938 185.402344 137.835938 186.667969 137.839844 C 205.359375 137.914062 223.3125 139.175781 241.042969 141.699219 C 258.769531 144.21875 276.363281 148.019531 294.335938 153.160156 L 294.332031 153.164062 C 295.394531 153.46875 296.3125 154.242188 296.761719 155.339844 L 308.636719 184.402344 C 309.101562 183.378906 309.617188 182.300781 310.1875 181.171875 C 310.734375 179.847656 312.015625 178.894531 313.539062 178.847656 L 332.171875 178.226562 L 332.171875 178.234375 C 333.6875 178.1875 335.140625 179.070312 335.75 180.554688 C 338.976562 188.382812 336.539062 198.300781 336.53125 198.328125 L 336.527344 198.328125 C 336.242188 199.59375 335.304688 200.675781 333.976562 201.085938 C 329.027344 202.613281 325.46875 203.738281 322.945312 204.546875 C 325.046875 207.242188 325.917969 210.507812 325.425781 213.96875 L 323.632812 226.546875 L 318.898438 259.84375 C 318.410156 263.277344 316.566406 266.191406 313.988281 268.125 C 313.984375 268.125 313.960938 268.140625 313.921875 268.167969 C 313.398438 268.535156 309.882812 271.269531 304.664062 270.527344 L 281.707031 267.261719 L 239.960938 261.320312 L 239.960938 253.742188 L 273.875 258.566406 C 274.863281 258.707031 275.765625 258.132812 275.886719 257.285156 L 276.976562 249.632812 C 278.003906 242.402344 271.949219 235.507812 263.519531 234.308594 L 246.960938 231.953125 C 247.960938 230.5625 248.582031 228.910156 248.734375 227.148438 C 249.363281 220.445312 248.101562 212.027344 244.664062 206.1875 C 242.636719 202.75 238.652344 200.90625 234.726562 201.597656 L 216.363281 204.824219 C 215.398438 204.996094 214.484375 205.304688 213.640625 205.738281 L 202.523438 186.730469 C 201.035156 184.191406 198.46875 182.472656 195.554688 182.066406 C 178.1875 179.660156 160.734375 178.3125 143.207031 178.183594 Z M 100.535156 177.742188 L 60.542969 143.984375 L 109.726562 136.152344 C 111.765625 135.828125 113.15625 133.910156 112.832031 131.871094 C 112.773438 131.5 112.660156 131.152344 112.503906 130.828125 L 91.839844 85.492188 L 139.355469 107.988281 C 141.226562 108.867188 143.457031 108.066406 144.339844 106.199219 C 144.375 106.121094 144.410156 106.042969 144.441406 105.964844 L 160.941406 63.664062 L 176.5625 106.550781 C 177.269531 108.492188 179.414062 109.496094 181.355469 108.792969 C 181.636719 108.691406 181.902344 108.558594 182.140625 108.402344 L 222.59375 85.105469 L 211.886719 131.835938 C 211.425781 133.847656 212.6875 135.859375 214.703125 136.316406 C 216.714844 136.777344 218.726562 135.519531 219.183594 133.503906 L 231.804688 78.425781 L 231.796875 78.425781 C 232 77.539062 231.882812 76.578125 231.394531 75.730469 C 230.367188 73.945312 228.082031 73.328125 226.292969 74.355469 L 182.074219 99.820312 L 164.621094 51.910156 C 164.289062 50.878906 163.511719 49.996094 162.421875 49.574219 C 160.496094 48.820312 158.324219 49.773438 157.574219 51.699219 L 138.925781 99.5 L 85.789062 74.347656 L 85.785156 74.351562 C 84.824219 73.902344 83.679688 73.859375 82.636719 74.332031 C 80.761719 75.191406 79.933594 77.410156 80.792969 79.285156 L 103.699219 129.539062 L 51.464844 137.859375 C 50.550781 137.964844 49.671875 138.402344 49.03125 139.160156 C 47.695312 140.734375 47.894531 143.101562 49.46875 144.433594 L 95.699219 183.457031 C 97.277344 184.792969 99.640625 184.59375 100.976562 183.015625 C 102.3125 181.441406 102.113281 179.078125 100.535156 177.742188 Z M 63.753906 281.210938 C 63.753906 278.035156 66.332031 275.460938 69.507812 275.460938 C 72.683594 275.460938 75.261719 278.035156 75.261719 281.210938 C 75.261719 284.390625 72.683594 286.964844 69.507812 286.964844 C 66.332031 286.964844 63.753906 284.390625 63.753906 281.210938 Z M 50.273438 234.722656 C 47.8125 237.09375 46.492188 240.207031 46.492188 243.699219 L 46.492188 290.039062 C 46.492188 293.523438 47.933594 296.6875 50.246094 298.972656 C 52.523438 301.226562 55.648438 302.621094 59.078125 302.621094 L 221.511719 302.621094 C 226.78125 302.621094 229.875 299.414062 230.34375 298.976562 C 230.378906 298.945312 230.398438 298.929688 230.402344 298.929688 C 232.679688 296.652344 234.09375 293.503906 234.09375 290.039062 L 234.09375 243.699219 C 234.09375 240.207031 232.773438 237.09375 230.3125 234.722656 C 232.699219 233.566406 236.0625 231.953125 240.75 229.742188 C 242.007812 229.148438 242.777344 227.945312 242.882812 226.652344 L 242.886719 226.652344 C 242.890625 226.621094 243.910156 216.460938 239.609375 209.164062 C 238.796875 207.78125 237.234375 207.113281 235.742188 207.375 L 217.378906 210.601562 C 215.878906 210.863281 214.742188 211.988281 214.390625 213.375 C 213.984375 214.574219 213.625 215.714844 213.308594 216.792969 L 197.460938 189.695312 C 196.859375 188.667969 195.839844 188.035156 194.746094 187.882812 L 194.75 187.878906 C 176.234375 185.320312 158.28125 184.039062 140.371094 184.039062 C 122.464844 184.039062 104.511719 185.320312 85.996094 187.878906 C 84.742188 188.050781 83.71875 188.828125 83.179688 189.875 L 67.332031 216.972656 C 67.003906 215.84375 66.625 214.640625 66.195312 213.375 C 65.84375 211.988281 64.707031 210.863281 63.207031 210.601562 L 44.84375 207.375 C 43.351562 207.113281 41.789062 207.78125 40.976562 209.164062 C 36.679688 216.460938 37.695312 226.621094 37.699219 226.652344 L 37.707031 226.652344 C 37.808594 227.945312 38.582031 229.148438 39.839844 229.742188 C 44.523438 231.953125 47.890625 233.566406 50.273438 234.722656 Z M 234.09375 303.835938 L 234.09375 314.722656 C 234.09375 317.726562 232.859375 320.46875 230.871094 322.460938 L 230.875 322.46875 C 228.890625 324.453125 226.148438 325.683594 223.132812 325.683594 L 205.53125 325.683594 C 202.523438 325.683594 199.785156 324.453125 197.800781 322.46875 L 197.785156 322.453125 C 195.800781 320.46875 194.566406 317.730469 194.566406 314.722656 L 194.566406 308.699219 L 221.511719 308.699219 C 225.640625 308.699219 229.402344 307.390625 232.605469 305.007812 L 232.921875 305.007812 Z M 86.019531 308.699219 L 86.019531 314.722656 C 86.019531 317.730469 84.785156 320.46875 82.804688 322.453125 L 82.789062 322.46875 C 80.804688 324.453125 78.066406 325.683594 75.058594 325.683594 L 57.453125 325.683594 C 54.4375 325.683594 51.695312 324.453125 49.710938 322.46875 L 49.710938 322.453125 C 47.726562 320.46875 46.492188 317.730469 46.492188 314.722656 L 46.492188 303.792969 C 49.925781 306.9375 54.398438 308.699219 59.078125 308.699219 Z M 88.8125 195.046875 L 72.238281 223.390625 L 208.507812 223.390625 L 191.933594 195.046875 C 174.476562 192.710938 157.445312 191.542969 140.371094 191.542969 C 123.300781 191.542969 106.269531 192.710938 88.8125 195.046875 Z M 68.777344 247.734375 C 68.273438 245.679688 67.953125 243.671875 67.816406 241.710938 C 75.082031 242.359375 81.609375 243.40625 87.40625 244.84375 C 94.015625 246.484375 96.238281 252.363281 98.355469 257.15625 L 80.808594 257.15625 C 75.035156 257.15625 70.160156 253.339844 68.777344 247.734375 Z M 182.234375 257.15625 L 199.78125 257.15625 C 205.550781 257.15625 210.425781 253.339844 211.808594 247.734375 C 212.3125 245.679688 212.636719 243.671875 212.769531 241.710938 C 205.507812 242.359375 198.980469 243.40625 193.179688 244.84375 C 186.570312 246.484375 184.355469 252.363281 182.234375 257.15625 Z M 89.433594 285.832031 C 89.433594 278.53125 96.398438 272.558594 104.914062 272.558594 L 175.671875 272.558594 C 184.1875 272.558594 191.152344 278.53125 191.152344 285.832031 L 191.152344 293.5625 C 191.152344 294.417969 190.339844 295.117188 189.339844 295.117188 L 91.246094 295.117188 C 90.246094 295.117188 89.433594 294.417969 89.433594 293.5625 Z M 205.328125 281.210938 C 205.328125 278.035156 207.902344 275.460938 211.078125 275.460938 C 214.257812 275.460938 216.832031 278.035156 216.832031 281.210938 C 216.832031 284.390625 214.257812 286.964844 211.078125 286.964844 C 207.902344 286.964844 205.328125 284.390625 205.328125 281.210938 Z M 316.953125 273.503906 L 315.421875 284.28125 C 314.996094 287.257812 313.386719 289.796875 311.136719 291.488281 L 311.144531 291.496094 C 308.898438 293.179688 306.007812 294.015625 303.023438 293.589844 L 285.597656 291.109375 C 282.617188 290.6875 280.078125 289.082031 278.394531 286.839844 L 278.382812 286.820312 C 276.699219 284.578125 275.863281 281.691406 276.289062 278.714844 L 277.136719 272.75 L 303.808594 276.546875 C 307.898438 277.128906 311.804688 276.363281 315.3125 274.457031 L 315.628906 274.5 Z M 188.445312 145.335938 L 168.042969 171.0625 L 302.953125 190.257812 L 290.535156 159.863281 C 273.582031 155.089844 256.886719 151.53125 239.984375 149.128906 C 223.085938 146.722656 206.058594 145.480469 188.445312 145.335938 Z M 272.183594 219.984375 L 289.554688 222.453125 C 295.269531 223.269531 300.632812 220.175781 302.792969 214.820312 C 303.582031 212.859375 304.183594 210.917969 304.59375 208.992188 C 297.308594 208.613281 290.699219 208.730469 284.757812 209.335938 C 277.980469 210.03125 274.960938 215.542969 272.183594 219.984375 Z M 291.660156 247.054688 C 291.210938 250.199219 293.398438 253.109375 296.546875 253.558594 C 299.691406 254.007812 302.601562 251.820312 303.050781 248.675781 C 303.496094 245.527344 301.308594 242.617188 298.164062 242.167969 C 295.019531 241.722656 292.105469 243.910156 291.660156 247.054688 Z M 291.660156 247.054688 " fill-opacity="1" fill-rule="evenodd"/></g></svg>