<svg xmlns="http://www.w3.org/2000/svg" xmlns:xlink="http://www.w3.org/1999/xlink" width="500" zoomAndPan="magnify" viewBox="0 0 375 374.999991" height="500" preserveAspectRatio="xMidYMid meet" version="1.0"><path fill="#153e76" d="M 271.820312 106.953125 C 274.304688 106.933594 275.359375 107.714844 275.75 108.949219 C 276.476562 111.136719 277.273438 115.460938 273.402344 116.886719 C 270.210938 118.039062 263.511719 118.878906 259.933594 119.429688 C 256.484375 119.9375 255.628906 117.902344 256.835938 114.875 C 259.054688 109.257812 264.097656 108.089844 268.808594 107.265625 C 270 107.070312 270.976562 106.953125 271.820312 106.953125 Z M 230.90625 64.300781 C 222.34375 64.300781 213.601562 64.257812 205.234375 65.4375 C 201.339844 65.964844 198.863281 68.25 197.054688 70.890625 C 194.179688 75.136719 192.03125 79.539062 190.214844 84.03125 C 192.171875 84.96875 193.816406 86.226562 195.238281 87.589844 C 197.101562 83.054688 199.578125 78.773438 202.339844 74.277344 C 203.921875 71.730469 206.269531 70.347656 208.816406 70.191406 C 215.5625 69.71875 223.542969 69.46875 230.910156 69.445312 C 238.304688 69.46875 246.285156 69.71875 253.015625 70.191406 C 255.578125 70.347656 257.921875 71.730469 259.507812 74.277344 C 262.886719 79.75 265.902344 84.914062 267.800781 90.648438 C 267.800781 90.648438 246.621094 92.761719 230.914062 92.761719 C 217.835938 92.761719 203.457031 91.492188 198.222656 91 C 201.816406 96.847656 204.773438 103.34375 207.023438 109.109375 L 250.613281 109.109375 C 252.257812 109.347656 252.644531 111.046875 251.882812 112.902344 C 250.257812 116.851562 246.097656 119.511719 241.871094 119.511719 L 225.105469 119.511719 C 225.128906 120.585938 225.070312 121.664062 224.800781 122.660156 C 224.507812 123.65625 224.167969 124.773438 223.640625 125.890625 C 232.308594 125.417969 240.886719 125.378906 249.203125 125.378906 C 259.898438 125.378906 271.085938 125.398438 282.273438 126.433594 L 282.273438 108.289062 C 282.273438 105.882812 281.296875 103.183594 279.964844 100.644531 L 281.664062 100.253906 C 286.144531 99.214844 287.082031 97.710938 287.902344 94.660156 C 288.644531 91.90625 286.929688 89.691406 284.070312 89.691406 L 273.804688 89.691406 C 271.519531 83.257812 268.875 76.90625 264.792969 70.898438 C 263.011719 68.257812 260.492188 65.972656 256.617188 65.445312 C 248.234375 64.261719 239.496094 64.300781 230.90625 64.300781 Z M 230.90625 64.300781 " fill-opacity="1" fill-rule="evenodd"/><path fill="#153e76" d="M 133.871094 136.992188 L 177.367188 136.992188 C 179.207031 137.261719 179.632812 139.117188 178.796875 141.195312 C 176.996094 145.550781 172.402344 148.484375 167.722656 148.484375 L 143.539062 148.484375 C 138.863281 148.484375 134.246094 145.550781 132.46875 141.195312 C 131.605469 139.121094 132.039062 136.992188 133.871094 136.992188 Z M 113.734375 134.957031 C 118.957031 135.859375 124.53125 137.167969 126.992188 143.390625 C 128.324219 146.734375 127.359375 148.980469 123.570312 148.394531 C 119.613281 147.808594 112.1875 146.886719 108.667969 145.59375 C 104.382812 144.011719 105.289062 139.242188 106.0625 136.835938 C 108.46875 134 110.582031 134.605469 113.734375 134.957031 Z M 155.621094 93.167969 C 163.777344 93.167969 172.59375 93.460938 180.042969 93.96875 C 182.882812 94.160156 185.460938 95.6875 187.222656 98.503906 C 190.953125 104.5625 194.285156 110.257812 196.375 116.570312 C 196.375 116.570312 172.988281 118.921875 155.621094 118.921875 C 138.273438 118.921875 114.882812 116.570312 114.882812 116.570312 C 116.976562 110.238281 120.300781 104.566406 124.039062 98.503906 C 125.777344 95.6875 128.378906 94.160156 131.195312 93.96875 C 138.644531 93.460938 147.46875 93.167969 155.621094 93.167969 Z M 155.621094 87.476562 C 146.15625 87.476562 136.496094 87.433594 127.226562 88.726562 C 122.941406 89.3125 120.1875 91.835938 118.191406 94.746094 C 113.691406 101.398438 110.777344 108.417969 108.234375 115.511719 L 96.894531 115.511719 C 93.726562 115.511719 91.847656 117.960938 92.671875 121.03125 C 93.566406 124.394531 94.585938 126.054688 99.535156 127.207031 L 101.425781 127.640625 C 99.960938 130.457031 98.867188 133.433594 98.867188 136.089844 L 98.867188 157.914062 C 98.867188 158.992188 99.136719 159.984375 99.511719 160.90625 C 111.5625 159.871094 123.566406 159.871094 135.066406 159.871094 C 149.285156 159.871094 164.242188 159.808594 179.066406 161.804688 C 180.867188 157.265625 182.960938 152.808594 185.015625 148.15625 C 190.117188 136.5 198.871094 128.734375 208.695312 127.207031 C 210.164062 126.992188 211.664062 126.9375 213.15625 126.742188 C 216.757812 126.25 217.8125 124.003906 218.589844 121.03125 C 219.410156 117.964844 217.519531 115.511719 214.363281 115.511719 L 203.027344 115.511719 C 200.480469 108.417969 197.570312 101.394531 193.054688 94.746094 C 191.074219 91.835938 188.316406 89.3125 184.035156 88.726562 C 174.765625 87.4375 165.101562 87.476562 155.621094 87.476562 Z M 155.621094 87.476562 " fill-opacity="1" fill-rule="evenodd"/><path fill="#153e76" d="M 311.710938 199.453125 C 315.527344 199.414062 317.128906 200.621094 317.734375 202.5 C 318.835938 205.832031 320.066406 212.457031 314.140625 214.625 C 309.273438 216.40625 299.023438 217.679688 293.550781 218.503906 C 288.308594 219.300781 286.996094 216.191406 288.8125 211.554688 C 292.214844 202.96875 299.921875 201.175781 307.140625 199.921875 C 308.933594 199.605469 310.445312 199.46875 311.710938 199.453125 Z M 249.195312 134.234375 C 236.09375 134.234375 222.714844 134.175781 209.925781 135.957031 C 203.980469 136.792969 200.164062 140.277344 197.429688 144.300781 C 193.113281 150.660156 189.898438 157.289062 187.128906 163.996094 C 190.121094 165.328125 192.714844 167.085938 194.929688 169.0625 C 197.746094 162.414062 201.441406 156.097656 205.503906 149.511719 C 207.910156 145.597656 211.511719 143.484375 215.417969 143.230469 C 225.730469 142.527344 237.910156 142.113281 249.195312 142.09375 C 260.476562 142.113281 272.664062 142.523438 282.988281 143.230469 C 286.875 143.480469 290.476562 145.59375 292.882812 149.511719 C 298.066406 157.875 302.660156 165.742188 305.554688 174.5 C 305.554688 174.5 273.207031 177.746094 249.195312 177.746094 C 229.839844 177.746094 209.164062 175.945312 200.285156 175.148438 C 200.308594 175.179688 200.363281 175.242188 200.386719 175.28125 L 200.386719 175.324219 C 206.523438 184.355469 210.101562 193.605469 213.644531 202.738281 L 279.273438 202.738281 C 281.816406 203.113281 282.417969 205.691406 281.226562 208.546875 C 278.765625 214.589844 272.386719 218.636719 265.917969 218.636719 L 241.371094 218.636719 C 241.410156 220.300781 241.21875 221.941406 240.808594 223.507812 L 240.785156 223.507812 C 239.964844 226.59375 238.640625 230.589844 235.269531 233.910156 C 233.707031 235.457031 231.457031 235.789062 229.558594 236.707031 C 230.167969 238.957031 231.34375 240.855469 231.554688 243.28125 L 296.074219 243.28125 L 296.074219 256.699219 C 296.074219 259.46875 298.28125 261.683594 301.039062 261.683594 L 315.15625 261.683594 C 317.910156 261.683594 320.140625 259.46875 320.140625 256.699219 L 320.140625 242.574219 C 324.210938 240.992188 327.695312 236.722656 327.695312 231.683594 L 327.695312 201.484375 C 327.695312 197.808594 326.210938 193.707031 324.15625 189.8125 L 326.773438 189.207031 C 333.621094 187.605469 335.042969 185.296875 336.277344 180.644531 C 337.414062 176.417969 334.808594 173.039062 330.429688 173.039062 L 314.765625 173.039062 C 311.242188 163.222656 307.21875 153.496094 300.957031 144.308594 C 298.21875 140.285156 294.40625 136.800781 288.460938 135.964844 C 275.671875 134.175781 262.292969 134.234375 249.195312 134.234375 Z M 249.195312 134.234375 " fill-opacity="1" fill-rule="evenodd"/><path fill="#153e76" d="M 135.089844 169.648438 C 149.578125 169.648438 164.339844 169.589844 178.503906 171.570312 C 185.050781 172.460938 189.277344 176.335938 192.304688 180.796875 C 199.214844 190.945312 203.671875 201.679688 207.5625 212.53125 L 224.890625 212.53125 C 229.722656 212.53125 232.613281 216.289062 231.34375 220.960938 C 229.972656 226.101562 228.410156 228.648438 220.820312 230.414062 L 217.941406 231.078125 C 220.195312 235.378906 221.859375 239.933594 221.859375 244.003906 L 221.859375 277.363281 C 221.859375 282.9375 218.003906 287.648438 213.503906 289.410156 L 213.503906 305.03125 C 213.503906 308.082031 211.042969 310.53125 207.988281 310.53125 L 192.386719 310.53125 C 189.332031 310.53125 186.890625 308.082031 186.890625 305.03125 L 186.890625 290.171875 L 83.285156 290.171875 L 83.285156 305.03125 C 83.285156 308.082031 80.820312 310.53125 77.785156 310.53125 L 62.179688 310.53125 C 59.128906 310.53125 56.6875 308.082031 56.6875 305.03125 L 56.6875 289.410156 C 52.191406 287.648438 48.316406 282.957031 48.316406 277.363281 L 48.316406 244.003906 C 48.316406 239.933594 49.960938 235.378906 52.226562 231.078125 L 49.332031 230.414062 C 41.761719 228.648438 40.199219 226.105469 38.828125 220.960938 C 37.582031 216.289062 40.457031 212.53125 45.285156 212.53125 L 62.613281 212.53125 C 66.519531 201.675781 70.964844 190.945312 77.867188 180.796875 C 80.898438 176.335938 85.121094 172.460938 91.675781 171.570312 C 105.828125 169.589844 120.597656 169.648438 135.089844 169.648438 Z M 135.089844 178.351562 C 122.609375 178.367188 109.136719 178.800781 97.734375 179.578125 C 93.414062 179.875 89.445312 182.226562 86.804688 186.523438 C 81.074219 195.796875 76.011719 204.476562 72.785156 214.175781 C 72.785156 214.175781 108.550781 217.75 135.09375 217.75 C 161.621094 217.75 197.398438 214.175781 197.398438 214.175781 C 194.1875 204.492188 189.101562 195.792969 183.378906 186.523438 C 180.714844 182.226562 176.746094 179.875 172.421875 179.578125 C 161.019531 178.800781 147.542969 178.367188 135.089844 178.351562 Z M 199.109375 242.257812 C 191.128906 243.648438 182.621094 245.644531 178.867188 255.148438 C 176.859375 260.253906 178.304688 263.695312 184.109375 262.8125 C 190.152344 261.894531 201.476562 260.488281 206.875 258.507812 C 213.421875 256.105469 212.058594 248.804688 210.84375 245.117188 C 209.949219 242.335938 207.089844 240.886719 199.109375 242.257812 Z M 59.324219 245.117188 C 58.117188 248.804688 56.722656 256.109375 63.292969 258.507812 C 68.679688 260.488281 80.015625 261.894531 86.058594 262.8125 C 91.867188 263.695312 93.320312 260.253906 91.300781 255.148438 C 87.546875 245.644531 79.039062 243.648438 71.039062 242.257812 C 63.0625 240.886719 60.230469 242.335938 59.324219 245.117188 Z M 168.332031 245.367188 L 101.824219 245.367188 C 99.007812 245.367188 98.378906 248.628906 99.671875 251.804688 C 102.410156 258.472656 109.453125 262.949219 116.589844 262.949219 L 153.574219 262.949219 C 160.730469 262.949219 167.769531 258.472656 170.507812 251.804688 C 171.792969 248.628906 171.125 245.777344 168.332031 245.367188 Z M 168.332031 245.367188 " fill-opacity="1" fill-rule="evenodd"/></svg>