<svg xmlns="http://www.w3.org/2000/svg" xmlns:xlink="http://www.w3.org/1999/xlink" width="500" zoomAndPan="magnify" viewBox="0 0 375 374.999991" height="500" preserveAspectRatio="xMidYMid meet" version="1.0"><defs><clipPath id="d040147063"><path d="M 76.113281 39.003906 L 299.425781 39.003906 L 299.425781 203.355469 L 76.113281 203.355469 Z M 76.113281 39.003906 " clip-rule="nonzero"/></clipPath><clipPath id="ded4f60abd"><path d="M 22 121 L 44 121 L 44 203.921875 L 22 203.921875 Z M 22 121 " clip-rule="nonzero"/></clipPath><clipPath id="eb3f3aced1"><path d="M 47 104 L 70 104 L 70 203.921875 L 47 203.921875 Z M 47 104 " clip-rule="nonzero"/></clipPath><clipPath id="a1eca5d801"><path d="M 0.398438 107 L 38 107 L 38 136 L 0.398438 136 Z M 0.398438 107 " clip-rule="nonzero"/></clipPath><clipPath id="31e1fe302b"><rect x="0" width="300" y="0" height="204"/></clipPath></defs><g transform="matrix(1, 0, 0, 1, 38, 86)"><g clip-path="url(#31e1fe302b)"><g clip-path="url(#d040147063)"><path fill="#153e76" d="M 288.035156 127.558594 C 283.929688 133.925781 267.238281 140.445312 264.644531 141.429688 C 264.480469 141.492188 264.316406 141.566406 264.152344 141.640625 C 263.671875 141.871094 262.085938 142.304688 259.765625 139.828125 C 257.722656 137.660156 254.210938 132.15625 252.421875 129.277344 C 251.839844 128.339844 252.257812 127.105469 253.289062 126.714844 L 284.445312 114.863281 C 285.105469 114.613281 285.851562 114.792969 286.320312 115.324219 C 288.03125 117.25 291.5 122.183594 288.035156 127.558594 Z M 279.847656 174.324219 C 277.691406 174.941406 274.605469 175.363281 270.289062 175.105469 C 268.757812 175.011719 267.292969 174.4375 266.113281 173.453125 L 256.351562 165.351562 C 254.894531 164.140625 255.152344 161.824219 256.84375 160.972656 C 260.523438 159.121094 266.96875 156.730469 274.949219 157.355469 C 278.335938 157.621094 281.28125 159.777344 282.523438 162.941406 C 283.054688 164.296875 283.550781 165.929688 283.890625 167.851562 C 284.398438 170.726562 282.65625 173.523438 279.847656 174.324219 Z M 250.714844 175.675781 L 124.824219 175.675781 C 123.570312 175.675781 122.917969 174.890625 123.765625 174.40625 L 129.441406 171.164062 C 135.875 167.851562 143.339844 167.554688 146.292969 167.585938 C 149.597656 167.621094 152.902344 167.628906 156.207031 167.628906 L 219.332031 167.628906 C 222.636719 167.628906 225.941406 167.621094 229.246094 167.585938 C 232.203125 167.554688 239.664062 167.851562 246.097656 171.164062 L 251.773438 174.40625 C 252.625 174.890625 251.96875 175.675781 250.714844 175.675781 Z M 123.117188 129.277344 C 121.332031 132.15625 117.816406 137.660156 115.777344 139.828125 C 113.453125 142.304688 111.871094 141.871094 111.386719 141.640625 C 111.226562 141.566406 111.0625 141.492188 110.894531 141.429688 C 108.304688 140.445312 91.613281 133.925781 87.507812 127.558594 C 84.042969 122.183594 87.507812 117.25 89.21875 115.324219 C 89.6875 114.792969 90.433594 114.613281 91.097656 114.863281 L 122.253906 126.714844 C 123.28125 127.105469 123.699219 128.339844 123.117188 129.277344 Z M 119.1875 165.351562 L 109.425781 173.453125 C 108.246094 174.4375 106.78125 175.011719 105.25 175.105469 C 100.9375 175.363281 97.851562 174.941406 95.691406 174.324219 C 92.882812 173.523438 91.140625 170.726562 91.648438 167.851562 C 91.988281 165.929688 92.484375 164.296875 93.015625 162.941406 C 94.261719 159.777344 97.203125 157.621094 100.59375 157.355469 C 108.574219 156.730469 115.019531 159.121094 118.695312 160.972656 C 120.390625 161.824219 120.644531 164.140625 119.1875 165.351562 Z M 244.90625 147.4375 C 242.417969 149.648438 238.375 152.03125 231.980469 153.105469 C 231.980469 153.105469 215.550781 156.019531 187.769531 156.019531 C 159.992188 156.019531 143.5625 153.105469 143.5625 153.105469 C 137.167969 152.03125 133.121094 149.648438 130.632812 147.4375 C 128.199219 145.277344 127.671875 141.675781 129.378906 138.898438 L 130.734375 136.699219 C 133.273438 132.570312 137.476562 129.738281 142.261719 128.960938 C 152.527344 127.304688 168.726562 127.179688 178.777344 127.292969 C 184.703125 127.363281 190.632812 127.367188 196.5625 127.296875 C 206.59375 127.175781 222.941406 127.289062 233.277344 128.960938 C 238.0625 129.738281 242.265625 132.570312 244.804688 136.699219 L 246.160156 138.898438 C 247.867188 141.675781 247.339844 145.277344 244.90625 147.4375 Z M 113.097656 80.644531 C 114.167969 77.296875 117.679688 68.648438 128.574219 53.390625 C 130.824219 50.242188 134.363281 48.265625 138.226562 48.011719 C 148.207031 47.34375 168.949219 46.128906 187.769531 46.128906 C 206.59375 46.128906 227.335938 47.34375 237.316406 48.011719 C 241.175781 48.265625 244.714844 50.242188 246.964844 53.390625 C 257.859375 68.648438 261.371094 77.296875 262.441406 80.644531 C 262.699219 81.445312 262.089844 82.265625 261.25 82.25 L 187.769531 81.121094 L 114.292969 82.25 C 113.449219 82.265625 112.84375 81.445312 113.097656 80.644531 Z M 299.425781 177.953125 L 298.515625 124.957031 C 297.9375 109.386719 276.34375 89.453125 276.34375 89.453125 C 278.539062 88.261719 280.980469 87.570312 283.480469 87.460938 C 287.015625 87.304688 292.035156 86.074219 290.828125 80.160156 C 289.492188 73.636719 279.511719 72.078125 274.210938 71.710938 C 272.546875 71.597656 271.234375 73.105469 271.570312 74.742188 L 273.421875 83.738281 C 273.425781 83.742188 273.425781 83.75 273.425781 83.753906 C 273.558594 84.429688 272.636719 84.769531 272.285156 84.179688 L 270.636719 81.40625 C 257.582031 59.019531 251.890625 51.082031 247.101562 46.976562 C 244.933594 45.117188 242.332031 43.824219 239.539062 43.203125 C 218.855469 38.609375 187.769531 39.015625 187.769531 39.015625 C 187.769531 39.015625 156.6875 38.609375 136 43.203125 C 133.210938 43.824219 130.609375 45.117188 128.4375 46.976562 C 123.652344 51.082031 117.957031 59.019531 104.902344 81.40625 L 103.253906 84.179688 C 102.902344 84.769531 101.980469 84.429688 102.113281 83.753906 C 102.113281 83.75 102.117188 83.742188 102.117188 83.738281 L 103.96875 74.742188 C 104.304688 73.105469 102.992188 71.597656 101.328125 71.710938 C 96.027344 72.078125 86.046875 73.636719 84.714844 80.160156 C 83.507812 86.074219 88.527344 87.304688 92.0625 87.460938 C 94.5625 87.570312 97 88.261719 99.199219 89.453125 C 99.199219 89.453125 77.601562 109.386719 77.023438 124.957031 L 76.117188 177.953125 C 76.078125 180.152344 76.949219 182.257812 78.5 183.765625 L 78.5 189.945312 C 78.5 197.320312 84.53125 203.355469 91.910156 203.355469 L 116.511719 203.355469 C 121.511719 203.355469 125.605469 199.265625 125.605469 194.261719 L 125.605469 190.425781 L 249.9375 190.425781 L 249.9375 194.261719 C 249.9375 199.265625 254.027344 203.355469 259.027344 203.355469 L 283.632812 203.355469 C 291.007812 203.355469 297.042969 197.320312 297.042969 189.945312 L 297.042969 183.765625 C 298.59375 182.257812 299.460938 180.152344 299.425781 177.953125 " fill-opacity="1" fill-rule="nonzero"/></g><path fill="#153e76" d="M 118.492188 55.421875 L 130.515625 33.394531 C 127.457031 34.753906 124.414062 36.285156 121.433594 38.015625 C 110.828125 44.175781 102.140625 51.976562 96.433594 59.796875 L 112.835938 58.972656 C 115.214844 58.855469 117.359375 57.507812 118.492188 55.421875 Z M 118.492188 55.421875 " fill-opacity="1" fill-rule="nonzero"/><path fill="#153e76" d="M 134.535156 11.75 C 131.222656 9.925781 127.074219 11.164062 125.261719 14.476562 L 124.550781 15.78125 C 128.066406 14.335938 131.5625 13.140625 135.046875 12.179688 C 134.859375 12.050781 134.742188 11.863281 134.535156 11.75 Z M 134.535156 11.75 " fill-opacity="1" fill-rule="nonzero"/><path fill="#153e76" d="M 56.632812 20.265625 C 57.832031 18.835938 59.515625 17.957031 61.375 17.789062 C 61.582031 17.773438 61.792969 17.761719 62 17.761719 C 64.847656 17.761719 67.25 19.464844 68.332031 21.933594 L 71.25 21.675781 C 71.949219 18.859375 74.289062 16.640625 77.335938 16.371094 C 77.546875 16.351562 77.753906 16.34375 77.960938 16.34375 C 79.335938 16.34375 80.550781 16.828125 81.632812 17.511719 C 80.386719 9.839844 74.585938 3.367188 66.519531 1.734375 C 56.113281 -0.375 45.964844 6.355469 43.855469 16.765625 C 43.351562 19.269531 43.378906 21.75 43.824219 24.113281 L 55.277344 23.09375 C 55.527344 22.070312 55.9375 21.097656 56.632812 20.265625 Z M 56.632812 20.265625 " fill-opacity="1" fill-rule="nonzero"/><path fill="#153e76" d="M 77.949219 30.316406 C 74.308594 30.316406 71.320312 27.578125 70.996094 23.949219 C 70.988281 23.875 71.023438 23.808594 71.019531 23.730469 L 68.894531 23.921875 C 68.902344 23.996094 68.945312 24.054688 68.953125 24.132812 C 69.292969 27.96875 66.449219 31.367188 62.613281 31.710938 C 62.402344 31.726562 62.195312 31.738281 61.988281 31.738281 C 58.347656 31.738281 55.355469 29 55.035156 25.367188 C 55.027344 25.292969 55.0625 25.226562 55.054688 25.152344 L 44.375 26.101562 C 46.359375 32.660156 51.703125 37.976562 58.886719 39.429688 C 67.234375 41.121094 75.332031 37.078125 79.335938 30.066406 C 79.074219 30.121094 78.84375 30.265625 78.574219 30.289062 C 78.363281 30.308594 78.15625 30.316406 77.949219 30.316406 Z M 77.949219 30.316406 " fill-opacity="1" fill-rule="nonzero"/><g clip-path="url(#ded4f60abd)"><path fill="#153e76" d="M 39.160156 121.742188 L 22.070312 131.667969 L 22.070312 192.707031 C 22.070312 198.542969 26.800781 203.273438 32.636719 203.273438 C 38.472656 203.273438 43.203125 198.542969 43.203125 192.707031 L 43.203125 123.53125 C 43.179688 123.53125 43.15625 123.53125 43.128906 123.527344 C 41.636719 123.316406 40.335938 122.625 39.160156 121.742188 Z M 39.160156 121.742188 " fill-opacity="1" fill-rule="nonzero"/></g><path fill="#153e76" d="M 25.960938 105.457031 C 24.839844 104.691406 23.703125 103.925781 22.570312 103.167969 C 22.519531 103.136719 22.472656 103.101562 22.421875 103.070312 L 22.359375 103.382812 C 22.261719 103.855469 22.351562 104.308594 22.355469 104.773438 C 22.289062 105.261719 22.070312 105.691406 22.070312 106.195312 L 22.070312 107.71875 Z M 25.960938 105.457031 " fill-opacity="1" fill-rule="nonzero"/><g clip-path="url(#eb3f3aced1)"><path fill="#153e76" d="M 68.300781 192.707031 L 68.300781 109.433594 L 69.359375 104.203125 L 53.113281 113.640625 C 53.113281 114.441406 53.207031 115.210938 53.085938 116.050781 C 52.609375 119.398438 50.230469 122.054688 47.167969 123.097656 L 47.167969 192.707031 C 47.167969 198.542969 51.898438 203.273438 57.734375 203.273438 C 63.570312 203.273438 68.300781 198.542969 68.300781 192.707031 Z M 68.300781 192.707031 " fill-opacity="1" fill-rule="nonzero"/></g><path fill="#153e76" d="M 71.480469 100.007812 C 73.757812 98.683594 75.070312 96.34375 75.191406 93.898438 L 84.910156 88.253906 C 84.933594 88.292969 84.953125 88.335938 84.972656 88.375 C 89.238281 95.714844 98.089844 99.714844 109.984375 99.714844 C 110.4375 99.714844 110.898438 99.710938 111.359375 99.699219 C 123.480469 99.390625 137.28125 95.085938 150.214844 87.574219 C 163.148438 80.0625 173.726562 70.210938 180 59.832031 C 186.511719 49.058594 187.664062 38.925781 183.238281 31.304688 L 178.566406 23.265625 C 174.140625 15.648438 164.753906 11.621094 152.1875 11.941406 C 140.0625 12.246094 126.265625 16.554688 113.328125 24.066406 C 100.394531 31.578125 89.816406 41.429688 83.542969 51.808594 C 77.03125 62.582031 75.882812 72.714844 80.308594 80.335938 C 80.375 80.457031 80.457031 80.566406 80.527344 80.683594 L 70.800781 86.332031 C 68.613281 85.226562 65.933594 85.207031 63.65625 86.53125 L 44.59375 97.601562 C 48.8125 101.398438 52.03125 105.6875 52.933594 110.78125 Z M 120.144531 35.800781 C 133.4375 28.078125 147.175781 24.160156 158.296875 24.160156 C 165.960938 24.160156 172.367188 26.03125 176.542969 29.792969 C 177.757812 35.402344 176.109375 42.246094 171.675781 49.582031 C 165.765625 59.359375 155.726562 68.683594 143.398438 75.839844 C 120.933594 88.886719 97.203125 91.074219 86.984375 81.832031 C 84.019531 68.378906 97.679688 48.847656 120.144531 35.800781 Z M 120.144531 35.800781 " fill-opacity="1" fill-rule="nonzero"/><g clip-path="url(#a1eca5d801)"><path fill="#153e76" d="M 35.613281 113.925781 C 35.464844 113.601562 34.945312 112.691406 33.359375 111.171875 C 31.953125 109.824219 30.191406 108.453125 28.277344 107.078125 L 4.25 121.03125 C 0.679688 123.105469 -0.535156 127.683594 1.539062 131.257812 L 1.851562 131.796875 C 3.925781 135.367188 8.503906 136.582031 12.078125 134.507812 L 37.234375 119.898438 C 35.984375 118.148438 35.394531 116.058594 35.613281 113.925781 Z M 35.613281 113.925781 " fill-opacity="1" fill-rule="nonzero"/></g><path fill="#153e76" d="M 23.65625 101.53125 C 27.6875 104.222656 31.851562 107.003906 34.71875 109.75 C 37.21875 112.148438 37.648438 113.523438 37.601562 113.847656 C 37.070312 117.585938 39.667969 121.050781 43.40625 121.582031 C 43.734375 121.628906 44.058594 121.648438 44.378906 121.648438 C 47.726562 121.648438 50.652344 119.1875 51.140625 115.773438 C 52.742188 104.515625 41.324219 96.886719 31.253906 90.160156 C 28.265625 88.164062 23.957031 85.285156 22.246094 83.523438 C 25.964844 71.542969 29.886719 64.53125 33.148438 60.398438 L 35.035156 61.191406 C 33.160156 63.472656 30.972656 67.042969 28.707031 72.011719 L 26.222656 84.289062 C 28.125 85.703125 30.511719 87.300781 32.3125 88.503906 C 35.753906 90.804688 39.304688 93.222656 42.519531 95.839844 L 62.367188 84.3125 C 63.898438 83.425781 65.636719 82.957031 67.398438 82.957031 C 68.484375 82.957031 69.574219 83.136719 70.605469 83.480469 L 73.949219 81.539062 L 75.457031 74.09375 C 74.296875 67.027344 76.253906 58.910156 81.351562 50.480469 C 82.117188 49.210938 83.140625 47.984375 84.03125 46.734375 L 73.136719 47.285156 L 41.742188 40.925781 C 41.585938 40.894531 41.4375 40.949219 41.28125 40.925781 C 41.230469 40.921875 41.191406 40.890625 41.136719 40.886719 C 40.707031 40.855469 40.039062 40.84375 39.183594 40.925781 C 39.152344 40.933594 39.117188 40.933594 39.082031 40.941406 C 35.273438 41.335938 27.832031 43.726562 20.25 54.980469 C 16.242188 60.925781 12.203125 69.300781 8.648438 81.246094 C 6.101562 89.800781 14.628906 95.5 23.65625 101.53125 Z M 23.65625 101.53125 " fill-opacity="1" fill-rule="nonzero"/><path fill="#153e76" d="M 77.511719 18.328125 C 74.746094 18.574219 72.707031 21.011719 72.953125 23.773438 C 73.199219 26.535156 75.640625 28.578125 78.402344 28.332031 C 81.164062 28.085938 83.203125 25.648438 82.957031 22.882812 C 82.710938 20.121094 80.273438 18.082031 77.511719 18.328125 Z M 77.511719 18.328125 " fill-opacity="1" fill-rule="nonzero"/><path fill="#153e76" d="M 61.546875 19.75 C 58.785156 19.992188 56.746094 22.433594 56.992188 25.195312 C 57.238281 27.957031 59.675781 29.996094 62.4375 29.75 C 65.199219 29.503906 67.242188 27.066406 66.992188 24.304688 C 66.75 21.542969 64.3125 19.503906 61.546875 19.75 Z M 61.546875 19.75 " fill-opacity="1" fill-rule="nonzero"/><path fill="#153e76" d="M 141.265625 68.742188 C 122.28125 80.964844 101.4375 82.695312 93.539062 73.011719 C 93.761719 73.464844 94 73.90625 94.277344 74.335938 C 101.382812 85.371094 123.152344 84.003906 142.90625 71.289062 C 162.660156 58.570312 172.914062 39.316406 165.808594 28.28125 C 165.609375 27.972656 165.382812 27.691406 165.164062 27.40625 C 165.074219 27.292969 165 27.167969 164.90625 27.058594 C 164.957031 27.15625 164.957031 27.273438 165.003906 27.375 C 170.226562 38.59375 160.085938 56.625 141.265625 68.742188 Z M 141.265625 68.742188 " fill-opacity="1" fill-rule="nonzero"/></g></g></svg>