<svg xmlns="http://www.w3.org/2000/svg" xmlns:xlink="http://www.w3.org/1999/xlink" width="500" zoomAndPan="magnify" viewBox="0 0 375 374.999991" height="500" preserveAspectRatio="xMidYMid meet" version="1.0"><defs><clipPath id="a103390d4a"><path d="M 75.082031 1.050781 L 300.679688 1.050781 L 300.679688 202 L 75.082031 202 Z M 75.082031 1.050781 " clip-rule="nonzero"/></clipPath><clipPath id="9e622f4ed0"><path d="M 75.136719 103.65625 L 120.53125 103.65625 L 120.53125 149.050781 L 75.136719 149.050781 Z M 75.136719 103.65625 " clip-rule="nonzero"/></clipPath><clipPath id="4db181f7a8"><path d="M 130.707031 58.21875 L 176.097656 58.21875 L 176.097656 103.609375 L 130.707031 103.609375 Z M 130.707031 58.21875 " clip-rule="nonzero"/></clipPath><clipPath id="59a9ba1abf"><path d="M 184.445312 29.769531 L 229.835938 29.769531 L 229.835938 75.160156 L 184.445312 75.160156 Z M 184.445312 29.769531 " clip-rule="nonzero"/></clipPath><clipPath id="c51b5a5921"><path d="M 18 62.851562 L 69 62.851562 L 69 114 L 18 114 Z M 18 62.851562 " clip-rule="nonzero"/></clipPath><clipPath id="8c7ee7d92b"><path d="M 0.5 141 L 53 141 L 53 200.777344 L 0.5 200.777344 Z M 0.5 141 " clip-rule="nonzero"/></clipPath><clipPath id="b32ed707d1"><path d="M 41 145 L 147.617188 145 L 147.617188 200.777344 L 41 200.777344 Z M 41 145 " clip-rule="nonzero"/></clipPath><clipPath id="c6e2a9b8d2"><path d="M 0.5 110 L 58 110 L 58 152 L 0.5 152 Z M 0.5 110 " clip-rule="nonzero"/></clipPath><clipPath id="57bcd8ecad"><path d="M 2 142 L 52 142 L 52 200.777344 L 2 200.777344 Z M 2 142 " clip-rule="nonzero"/></clipPath><clipPath id="64214667dc"><rect x="0" width="301" y="0" height="202"/></clipPath></defs><g transform="matrix(1, 0, 0, 1, 37, 86)"><g clip-path="url(#64214667dc)"><g clip-path="url(#a103390d4a)"><path fill="#153e76" d="M 239.570312 123.089844 L 239.554688 123.585938 C 239.285156 156.222656 212.921875 177.863281 178.738281 191.269531 C 169.488281 194.902344 159.65625 197.929688 149.621094 200.414062 C 170.480469 199.046875 191.40625 196.566406 210.4375 192.15625 C 253.3125 182.21875 286.496094 162.414062 286.496094 123.105469 L 286.507812 36.609375 L 300.28125 36.609375 L 263.03125 1.0625 L 225.785156 36.609375 L 239.570312 36.609375 C 239.570312 64.894531 240.601562 95.035156 239.570312 123.089844 Z M 231.859375 123.105469 L 231.851562 83.859375 L 184.921875 83.859375 L 184.921875 180.28125 C 211.878906 167.878906 231.652344 149.488281 231.859375 123.542969 Z M 177.199219 183.597656 L 177.199219 111.085938 L 130.277344 111.085938 L 130.277344 196.679688 C 145.957031 193.820312 161.675781 189.695312 175.9375 184.09375 Z M 122.554688 197.992188 L 122.554688 157.53125 L 75.628906 157.53125 L 75.628906 201.914062 C 89.777344 201.8125 106.007812 200.589844 122.554688 197.992188 Z M 122.554688 197.992188 " fill-opacity="1" fill-rule="evenodd"/></g><g clip-path="url(#9e622f4ed0)"><path fill="#153e76" d="M 120.574219 126.375 C 120.574219 138.917969 110.398438 149.09375 97.855469 149.09375 C 85.3125 149.09375 75.136719 138.917969 75.136719 126.375 C 75.136719 113.832031 85.3125 103.65625 97.855469 103.65625 C 110.398438 103.65625 120.574219 113.832031 120.574219 126.375 Z M 120.574219 126.375 " fill-opacity="1" fill-rule="nonzero"/></g><path fill="#ffffff" d="M 92.175781 113.878906 L 106.941406 113.878906 L 106.941406 117.285156 L 92.175781 117.285156 Z M 88.769531 119.558594 L 106.941406 119.558594 L 106.941406 122.96875 L 88.769531 122.96875 Z M 88.769531 119.558594 " fill-opacity="1" fill-rule="nonzero"/><path fill="#ffffff" d="M 93.8125 129.78125 L 93.882812 129.78125 C 97.996094 129.78125 102.398438 126.585938 102.398438 121.832031 C 102.398438 117.074219 97.996094 113.878906 93.882812 113.878906 L 88.769531 113.878906 L 88.769531 117.285156 L 93.882812 117.285156 C 96.023438 117.285156 98.992188 118.867188 98.992188 121.832031 C 98.992188 124.792969 96.023438 126.375 93.882812 126.375 L 88.769531 126.375 L 88.769531 130.011719 L 100.761719 140.003906 L 106.082031 140.003906 Z M 93.8125 129.78125 " fill-opacity="1" fill-rule="nonzero"/><g clip-path="url(#4db181f7a8)"><path fill="#153e76" d="M 176.140625 80.9375 C 176.140625 93.480469 165.96875 103.652344 153.425781 103.652344 C 140.878906 103.652344 130.707031 93.480469 130.707031 80.9375 C 130.707031 68.390625 140.878906 58.21875 153.425781 58.21875 C 165.96875 58.21875 176.140625 68.390625 176.140625 80.9375 Z M 176.140625 80.9375 " fill-opacity="1" fill-rule="nonzero"/></g><path fill="#ffffff" d="M 147.746094 68.441406 L 162.511719 68.441406 L 162.511719 71.847656 L 147.746094 71.847656 Z M 144.339844 74.121094 L 162.511719 74.121094 L 162.511719 77.527344 L 144.339844 77.527344 Z M 144.339844 74.121094 " fill-opacity="1" fill-rule="nonzero"/><path fill="#ffffff" d="M 149.382812 84.34375 L 149.449219 84.34375 C 153.5625 84.34375 157.96875 81.148438 157.96875 76.394531 C 157.96875 71.636719 153.5625 68.441406 149.449219 68.441406 L 144.339844 68.441406 L 144.339844 71.847656 L 149.449219 71.847656 C 151.59375 71.847656 154.5625 73.429688 154.5625 76.394531 C 154.5625 79.355469 151.59375 80.9375 149.449219 80.9375 L 144.339844 80.9375 L 144.339844 84.574219 L 156.332031 94.566406 L 161.652344 94.566406 Z M 149.382812 84.34375 " fill-opacity="1" fill-rule="nonzero"/><g clip-path="url(#59a9ba1abf)"><path fill="#153e76" d="M 229.878906 52.484375 C 229.878906 65.03125 219.707031 75.203125 207.160156 75.203125 C 194.617188 75.203125 184.445312 65.03125 184.445312 52.484375 C 184.445312 39.941406 194.617188 29.769531 207.160156 29.769531 C 219.707031 29.769531 229.878906 39.941406 229.878906 52.484375 Z M 229.878906 52.484375 " fill-opacity="1" fill-rule="nonzero"/></g><path fill="#ffffff" d="M 201.480469 39.992188 L 216.25 39.992188 L 216.25 43.398438 L 201.480469 43.398438 Z M 198.074219 45.671875 L 216.25 45.671875 L 216.25 49.078125 L 198.074219 49.078125 Z M 198.074219 45.671875 " fill-opacity="1" fill-rule="nonzero"/><path fill="#ffffff" d="M 203.121094 55.894531 L 203.1875 55.894531 C 207.296875 55.894531 211.703125 52.699219 211.703125 47.941406 C 211.703125 43.1875 207.296875 39.992188 203.1875 39.992188 L 198.074219 39.992188 L 198.074219 43.398438 L 203.1875 43.398438 C 205.328125 43.398438 208.296875 44.980469 208.296875 47.941406 C 208.296875 50.90625 205.328125 52.484375 203.1875 52.484375 L 198.074219 52.484375 L 198.074219 56.125 L 210.070312 66.117188 L 215.390625 66.117188 Z M 203.121094 55.894531 " fill-opacity="1" fill-rule="nonzero"/><path fill="#153e76" d="M 126.226562 115.640625 C 126.226562 116.777344 126.171875 117.910156 126.0625 119.039062 C 125.949219 120.167969 125.78125 121.289062 125.5625 122.402344 C 125.339844 123.515625 125.066406 124.617188 124.734375 125.703125 C 124.40625 126.789062 124.023438 127.859375 123.589844 128.90625 C 123.152344 129.957031 122.667969 130.980469 122.132812 131.984375 C 121.597656 132.984375 121.015625 133.957031 120.386719 134.902344 C 119.753906 135.84375 119.078125 136.757812 118.359375 137.632812 C 117.636719 138.511719 116.875 139.351562 116.074219 140.15625 C 115.269531 140.957031 114.429688 141.71875 113.550781 142.441406 C 112.675781 143.160156 111.765625 143.835938 110.820312 144.464844 C 109.875 145.097656 108.902344 145.679688 107.902344 146.214844 C 106.898438 146.75 105.875 147.234375 104.824219 147.671875 C 103.777344 148.105469 102.710938 148.488281 101.621094 148.816406 C 100.535156 149.144531 99.4375 149.421875 98.324219 149.644531 C 97.207031 149.863281 96.085938 150.03125 94.957031 150.140625 C 93.828125 150.253906 92.695312 150.308594 91.558594 150.308594 C 90.421875 150.308594 89.289062 150.253906 88.160156 150.140625 C 87.03125 150.03125 85.910156 149.863281 84.796875 149.644531 C 83.679688 149.421875 82.582031 149.144531 81.496094 148.816406 C 80.410156 148.488281 79.339844 148.105469 78.292969 147.671875 C 77.242188 147.234375 76.21875 146.75 75.214844 146.214844 C 74.214844 145.679688 73.242188 145.097656 72.296875 144.464844 C 71.351562 143.835938 70.441406 143.160156 69.566406 142.441406 C 68.6875 141.71875 67.847656 140.957031 67.042969 140.15625 C 66.242188 139.351562 65.480469 138.511719 64.757812 137.632812 C 64.039062 136.757812 63.363281 135.84375 62.734375 134.902344 C 62.101562 133.957031 61.519531 132.984375 60.984375 131.984375 C 60.449219 130.980469 59.964844 129.957031 59.527344 128.90625 C 59.09375 127.859375 58.710938 126.789062 58.382812 125.703125 C 58.054688 124.617188 57.777344 123.515625 57.554688 122.402344 C 57.335938 121.289062 57.167969 120.167969 57.054688 119.039062 C 56.945312 117.910156 56.890625 116.777344 56.890625 115.640625 C 56.890625 114.503906 56.945312 113.371094 57.054688 112.242188 C 57.167969 111.113281 57.335938 109.992188 57.554688 108.875 C 57.777344 107.761719 58.054688 106.664062 58.382812 105.578125 C 58.710938 104.488281 59.09375 103.421875 59.527344 102.371094 C 59.964844 101.324219 60.449219 100.296875 60.984375 99.296875 C 61.519531 98.296875 62.101562 97.324219 62.734375 96.378906 C 63.363281 95.433594 64.039062 94.523438 64.757812 93.648438 C 65.480469 92.769531 66.242188 91.929688 67.042969 91.125 C 67.847656 90.324219 68.6875 89.5625 69.566406 88.839844 C 70.441406 88.121094 71.351562 87.445312 72.296875 86.8125 C 73.242188 86.183594 74.214844 85.601562 75.214844 85.066406 C 76.21875 84.53125 77.242188 84.042969 78.292969 83.609375 C 79.339844 83.175781 80.410156 82.792969 81.496094 82.464844 C 82.582031 82.132812 83.679688 81.859375 84.796875 81.636719 C 85.910156 81.414062 87.03125 81.25 88.160156 81.136719 C 89.289062 81.027344 90.421875 80.972656 91.558594 80.972656 C 92.695312 80.972656 93.828125 81.027344 94.957031 81.136719 C 96.085938 81.25 97.207031 81.414062 98.324219 81.636719 C 99.4375 81.859375 100.535156 82.132812 101.621094 82.464844 C 102.710938 82.792969 103.777344 83.175781 104.824219 83.609375 C 105.875 84.042969 106.898438 84.53125 107.902344 85.066406 C 108.902344 85.601562 109.875 86.183594 110.820312 86.8125 C 111.765625 87.445312 112.675781 88.121094 113.550781 88.839844 C 114.429688 89.5625 115.269531 90.324219 116.074219 91.125 C 116.875 91.929688 117.636719 92.769531 118.359375 93.648438 C 119.078125 94.523438 119.753906 95.433594 120.386719 96.378906 C 121.015625 97.324219 121.597656 98.296875 122.132812 99.296875 C 122.667969 100.296875 123.152344 101.324219 123.589844 102.371094 C 124.023438 103.421875 124.40625 104.488281 124.734375 105.578125 C 125.066406 106.664062 125.339844 107.761719 125.5625 108.875 C 125.78125 109.992188 125.949219 111.113281 126.0625 112.242188 C 126.171875 113.371094 126.226562 114.503906 126.226562 115.640625 Z M 126.226562 115.640625 " fill-opacity="1" fill-rule="nonzero"/><path fill="#153e76" d="M 126.226562 115.640625 C 126.226562 116.777344 126.171875 117.910156 126.0625 119.039062 C 125.949219 120.167969 125.78125 121.289062 125.5625 122.402344 C 125.339844 123.515625 125.066406 124.617188 124.734375 125.703125 C 124.40625 126.789062 124.023438 127.859375 123.589844 128.90625 C 123.152344 129.957031 122.667969 130.980469 122.132812 131.984375 C 121.597656 132.984375 121.015625 133.957031 120.386719 134.902344 C 119.753906 135.84375 119.078125 136.757812 118.359375 137.632812 C 117.636719 138.511719 116.875 139.351562 116.074219 140.15625 C 115.269531 140.957031 114.429688 141.71875 113.550781 142.441406 C 112.675781 143.160156 111.765625 143.835938 110.820312 144.464844 C 109.875 145.097656 108.902344 145.679688 107.902344 146.214844 C 106.898438 146.75 105.875 147.234375 104.824219 147.671875 C 103.777344 148.105469 102.710938 148.488281 101.621094 148.816406 C 100.535156 149.144531 99.4375 149.421875 98.324219 149.644531 C 97.207031 149.863281 96.085938 150.03125 94.957031 150.140625 C 93.828125 150.253906 92.695312 150.308594 91.558594 150.308594 C 90.421875 150.308594 89.289062 150.253906 88.160156 150.140625 C 87.03125 150.03125 85.910156 149.863281 84.796875 149.644531 C 83.679688 149.421875 82.582031 149.144531 81.496094 148.816406 C 80.410156 148.488281 79.339844 148.105469 78.292969 147.671875 C 77.242188 147.234375 76.21875 146.75 75.214844 146.214844 C 74.214844 145.679688 73.242188 145.097656 72.296875 144.464844 C 71.351562 143.835938 70.441406 143.160156 69.566406 142.441406 C 68.6875 141.71875 67.847656 140.957031 67.042969 140.15625 C 66.242188 139.351562 65.480469 138.511719 64.757812 137.632812 C 64.039062 136.757812 63.363281 135.84375 62.734375 134.902344 C 62.101562 133.957031 61.519531 132.984375 60.984375 131.984375 C 60.449219 130.980469 59.964844 129.957031 59.527344 128.90625 C 59.09375 127.859375 58.710938 126.789062 58.382812 125.703125 C 58.054688 124.617188 57.777344 123.515625 57.554688 122.402344 C 57.335938 121.289062 57.167969 120.167969 57.054688 119.039062 C 56.945312 117.910156 56.890625 116.777344 56.890625 115.640625 C 56.890625 114.503906 56.945312 113.371094 57.054688 112.242188 C 57.167969 111.113281 57.335938 109.992188 57.554688 108.875 C 57.777344 107.761719 58.054688 106.664062 58.382812 105.578125 C 58.710938 104.488281 59.09375 103.421875 59.527344 102.371094 C 59.964844 101.324219 60.449219 100.296875 60.984375 99.296875 C 61.519531 98.296875 62.101562 97.324219 62.734375 96.378906 C 63.363281 95.433594 64.039062 94.523438 64.757812 93.648438 C 65.480469 92.769531 66.242188 91.929688 67.042969 91.125 C 67.847656 90.324219 68.6875 89.5625 69.566406 88.839844 C 70.441406 88.121094 71.351562 87.445312 72.296875 86.8125 C 73.242188 86.183594 74.214844 85.601562 75.214844 85.066406 C 76.21875 84.53125 77.242188 84.042969 78.292969 83.609375 C 79.339844 83.175781 80.410156 82.792969 81.496094 82.464844 C 82.582031 82.132812 83.679688 81.859375 84.796875 81.636719 C 85.910156 81.414062 87.03125 81.25 88.160156 81.136719 C 89.289062 81.027344 90.421875 80.972656 91.558594 80.972656 C 92.695312 80.972656 93.828125 81.027344 94.957031 81.136719 C 96.085938 81.25 97.207031 81.414062 98.324219 81.636719 C 99.4375 81.859375 100.535156 82.132812 101.621094 82.464844 C 102.710938 82.792969 103.777344 83.175781 104.824219 83.609375 C 105.875 84.042969 106.898438 84.53125 107.902344 85.066406 C 108.902344 85.601562 109.875 86.183594 110.820312 86.8125 C 111.765625 87.445312 112.675781 88.121094 113.550781 88.839844 C 114.429688 89.5625 115.269531 90.324219 116.074219 91.125 C 116.875 91.929688 117.636719 92.769531 118.359375 93.648438 C 119.078125 94.523438 119.753906 95.433594 120.386719 96.378906 C 121.015625 97.324219 121.597656 98.296875 122.132812 99.296875 C 122.667969 100.296875 123.152344 101.324219 123.589844 102.371094 C 124.023438 103.421875 124.40625 104.488281 124.734375 105.578125 C 125.066406 106.664062 125.339844 107.761719 125.5625 108.875 C 125.78125 109.992188 125.949219 111.113281 126.0625 112.242188 C 126.171875 113.371094 126.226562 114.503906 126.226562 115.640625 Z M 126.226562 115.640625 " fill-opacity="1" fill-rule="nonzero"/><g clip-path="url(#c51b5a5921)"><path fill="#153e76" d="M 68.640625 81.121094 C 65.503906 70.65625 55.832031 63.003906 44.363281 62.929688 C 29.96875 62.851562 18.253906 74.867188 18.726562 89.265625 C 19.160156 102.964844 30.402344 113.941406 44.210938 113.941406 C 46.273438 113.941406 48.273438 113.695312 50.183594 113.242188 C 50.957031 99.84375 58.117188 88.152344 68.640625 81.121094 Z M 68.640625 81.121094 " fill-opacity="1" fill-rule="nonzero"/></g><path fill="#153e76" d="M 126.226562 115.640625 C 126.226562 116.777344 126.171875 117.910156 126.0625 119.039062 C 125.949219 120.167969 125.78125 121.289062 125.5625 122.402344 C 125.339844 123.515625 125.066406 124.617188 124.734375 125.703125 C 124.40625 126.789062 124.023438 127.859375 123.589844 128.90625 C 123.152344 129.957031 122.667969 130.980469 122.132812 131.984375 C 121.597656 132.984375 121.015625 133.957031 120.386719 134.902344 C 119.753906 135.84375 119.078125 136.757812 118.359375 137.632812 C 117.636719 138.511719 116.875 139.351562 116.074219 140.15625 C 115.269531 140.957031 114.429688 141.71875 113.550781 142.441406 C 112.675781 143.160156 111.765625 143.835938 110.820312 144.464844 C 109.875 145.097656 108.902344 145.679688 107.902344 146.214844 C 106.898438 146.75 105.875 147.234375 104.824219 147.671875 C 103.777344 148.105469 102.710938 148.488281 101.621094 148.816406 C 100.535156 149.144531 99.4375 149.421875 98.324219 149.644531 C 97.207031 149.863281 96.085938 150.03125 94.957031 150.140625 C 93.828125 150.253906 92.695312 150.308594 91.558594 150.308594 C 90.421875 150.308594 89.289062 150.253906 88.160156 150.140625 C 87.03125 150.03125 85.910156 149.863281 84.796875 149.644531 C 83.679688 149.421875 82.582031 149.144531 81.496094 148.816406 C 80.410156 148.488281 79.339844 148.105469 78.292969 147.671875 C 77.242188 147.234375 76.21875 146.75 75.214844 146.214844 C 74.214844 145.679688 73.242188 145.097656 72.296875 144.464844 C 71.351562 143.835938 70.441406 143.160156 69.566406 142.441406 C 68.6875 141.71875 67.847656 140.957031 67.042969 140.15625 C 66.242188 139.351562 65.480469 138.511719 64.757812 137.632812 C 64.039062 136.757812 63.363281 135.84375 62.734375 134.902344 C 62.101562 133.957031 61.519531 132.984375 60.984375 131.984375 C 60.449219 130.980469 59.964844 129.957031 59.527344 128.90625 C 59.09375 127.859375 58.710938 126.789062 58.382812 125.703125 C 58.054688 124.617188 57.777344 123.515625 57.554688 122.402344 C 57.335938 121.289062 57.167969 120.167969 57.054688 119.039062 C 56.945312 117.910156 56.890625 116.777344 56.890625 115.640625 C 56.890625 114.503906 56.945312 113.371094 57.054688 112.242188 C 57.167969 111.113281 57.335938 109.992188 57.554688 108.875 C 57.777344 107.761719 58.054688 106.664062 58.382812 105.578125 C 58.710938 104.488281 59.09375 103.421875 59.527344 102.371094 C 59.964844 101.324219 60.449219 100.296875 60.984375 99.296875 C 61.519531 98.296875 62.101562 97.324219 62.734375 96.378906 C 63.363281 95.433594 64.039062 94.523438 64.757812 93.648438 C 65.480469 92.769531 66.242188 91.929688 67.042969 91.125 C 67.847656 90.324219 68.6875 89.5625 69.566406 88.839844 C 70.441406 88.121094 71.351562 87.445312 72.296875 86.8125 C 73.242188 86.183594 74.214844 85.601562 75.214844 85.066406 C 76.21875 84.53125 77.242188 84.042969 78.292969 83.609375 C 79.339844 83.175781 80.410156 82.792969 81.496094 82.464844 C 82.582031 82.132812 83.679688 81.859375 84.796875 81.636719 C 85.910156 81.414062 87.03125 81.25 88.160156 81.136719 C 89.289062 81.027344 90.421875 80.972656 91.558594 80.972656 C 92.695312 80.972656 93.828125 81.027344 94.957031 81.136719 C 96.085938 81.25 97.207031 81.414062 98.324219 81.636719 C 99.4375 81.859375 100.535156 82.132812 101.621094 82.464844 C 102.710938 82.792969 103.777344 83.175781 104.824219 83.609375 C 105.875 84.042969 106.898438 84.53125 107.902344 85.066406 C 108.902344 85.601562 109.875 86.183594 110.820312 86.8125 C 111.765625 87.445312 112.675781 88.121094 113.550781 88.839844 C 114.429688 89.5625 115.269531 90.324219 116.074219 91.125 C 116.875 91.929688 117.636719 92.769531 118.359375 93.648438 C 119.078125 94.523438 119.753906 95.433594 120.386719 96.378906 C 121.015625 97.324219 121.597656 98.296875 122.132812 99.296875 C 122.667969 100.296875 123.152344 101.324219 123.589844 102.371094 C 124.023438 103.421875 124.40625 104.488281 124.734375 105.578125 C 125.066406 106.664062 125.339844 107.761719 125.5625 108.875 C 125.78125 109.992188 125.949219 111.113281 126.0625 112.242188 C 126.171875 113.371094 126.226562 114.503906 126.226562 115.640625 Z M 126.226562 115.640625 " fill-opacity="1" fill-rule="nonzero"/><g clip-path="url(#8c7ee7d92b)"><path fill="#153e76" d="M 52.355469 201.492188 C 36.203125 185.921875 34.179688 172.207031 34.40625 165.386719 L 48.445312 165.386719 L 24.527344 141.941406 L 0.605469 165.386719 L 14.417969 165.386719 C 23.257812 200.714844 52.261719 201.492188 52.355469 201.492188 C 52.375 201.492188 52.355469 201.492188 52.355469 201.492188 Z M 52.355469 201.492188 " fill-opacity="1" fill-rule="nonzero"/></g><g clip-path="url(#b32ed707d1)"><path fill="#153e76" d="M 120.070312 145.679688 C 112.625 152.746094 102.59375 157.074219 91.558594 157.074219 C 80.261719 157.074219 70.019531 152.519531 62.519531 145.171875 C 57.550781 148.210938 53.015625 152.027344 49.050781 156.46875 L 65.050781 172.148438 L 41.8125 172.148438 C 43.171875 178.367188 47.046875 186.960938 57.058594 196.617188 L 62.578125 201.925781 L 149.5625 201.925781 C 149.578125 177.875 137.695312 156.867188 120.070312 145.679688 Z M 120.070312 145.679688 " fill-opacity="1" fill-rule="nonzero"/></g><g clip-path="url(#c6e2a9b8d2)"><path fill="#153e76" d="M 25.414062 133.304688 L 43.285156 150.820312 C 43.984375 150.800781 44.382812 150.800781 45.082031 150.78125 C 48.671875 146.945312 52.65625 143.546875 56.964844 140.691406 C 57.097656 140.011719 57.171875 139.632812 57.304688 138.9375 C 53.488281 133.34375 51.015625 126.769531 50.316406 119.683594 C 49.746094 119.230469 49.445312 119.003906 48.878906 118.550781 C 47.347656 118.777344 45.800781 118.910156 44.210938 118.910156 C 36.238281 118.910156 28.984375 115.828125 23.542969 110.824219 C 22.976562 110.765625 22.578125 110.746094 22.011719 110.691406 C 9.183594 118.945312 0.550781 134.308594 0.550781 151.894531 L 4.160156 151.894531 C 4.460938 151.765625 4.726562 151.667969 5.046875 151.539062 L 23.675781 133.285156 C 24.335938 133.304688 24.734375 133.304688 25.414062 133.304688 Z M 25.414062 133.304688 " fill-opacity="1" fill-rule="nonzero"/></g><g clip-path="url(#57bcd8ecad)"><path fill="#153e76" d="M 50.617188 199.773438 C 36.675781 185.546875 34.367188 173.058594 34.386719 166.253906 C 34.726562 165.914062 34.917969 165.726562 35.257812 165.386719 L 46.328125 165.386719 C 46.628906 164.667969 46.648438 164.613281 46.933594 163.894531 L 25.148438 142.523438 C 24.675781 142.523438 24.414062 142.523438 23.941406 142.523438 L 2.117188 163.894531 C 2.421875 164.613281 2.4375 164.667969 2.722656 165.386719 L 13.738281 165.386719 C 14.058594 165.632812 14.265625 165.800781 14.585938 166.046875 C 22.011719 194.558594 42.699219 200.148438 49.878906 201.246094 C 51.296875 201.453125 51.636719 200.792969 50.617188 199.773438 Z M 50.617188 199.773438 " fill-opacity="1" fill-rule="nonzero"/></g></g></g></svg>