<svg xmlns="http://www.w3.org/2000/svg" xmlns:xlink="http://www.w3.org/1999/xlink" width="500" zoomAndPan="magnify" viewBox="0 0 375 374.999991" height="500" preserveAspectRatio="xMidYMid meet" version="1.0"><defs><clipPath id="867cb6c5d4"><path d="M 214 162 L 337.5 162 L 337.5 252 L 214 252 Z M 214 162 " clip-rule="nonzero"/></clipPath><clipPath id="48bfa8e15e"><path d="M 38 317 L 238 317 L 238 337.5 L 38 337.5 Z M 38 317 " clip-rule="nonzero"/></clipPath></defs><path fill="#153e76" d="M 44.636719 186.492188 L 173.15625 246.433594 C 173.746094 246.710938 174.359375 246.925781 174.996094 247.078125 C 175.628906 247.234375 176.273438 247.328125 176.925781 247.355469 C 177.578125 247.382812 178.226562 247.347656 178.871094 247.25 C 179.519531 247.148438 180.148438 246.988281 180.761719 246.765625 C 181.375 246.539062 181.960938 246.257812 182.519531 245.921875 C 183.078125 245.582031 183.597656 245.191406 184.078125 244.75 C 184.5625 244.308594 184.996094 243.824219 185.382812 243.300781 C 185.769531 242.773438 186.097656 242.214844 186.375 241.621094 L 201.347656 209.496094 C 201.625 208.902344 201.839844 208.289062 201.996094 207.65625 C 202.148438 207.023438 202.242188 206.378906 202.269531 205.726562 C 202.296875 205.074219 202.261719 204.425781 202.164062 203.78125 C 202.0625 203.136719 201.902344 202.507812 201.679688 201.894531 C 201.457031 201.28125 201.175781 200.695312 200.835938 200.136719 C 200.5 199.578125 200.109375 199.058594 199.667969 198.578125 C 199.226562 198.09375 198.746094 197.660156 198.21875 197.273438 C 197.691406 196.886719 197.132812 196.558594 196.542969 196.28125 L 189.488281 192.996094 L 211.042969 146.761719 L 218.09375 150.046875 C 218.6875 150.324219 219.300781 150.539062 219.933594 150.695312 C 220.566406 150.851562 221.210938 150.941406 221.863281 150.96875 C 222.515625 151 223.164062 150.964844 223.808594 150.863281 C 224.453125 150.765625 225.082031 150.601562 225.695312 150.378906 C 226.308594 150.15625 226.894531 149.875 227.453125 149.539062 C 228.011719 149.199219 228.53125 148.808594 229.011719 148.367188 C 229.496094 147.929688 229.929688 147.445312 230.316406 146.917969 C 230.699219 146.390625 231.03125 145.832031 231.308594 145.242188 L 246.316406 113.097656 C 246.59375 112.503906 246.808594 111.890625 246.960938 111.257812 C 247.117188 110.625 247.207031 109.980469 247.234375 109.328125 C 247.265625 108.675781 247.226562 108.027344 247.128906 107.382812 C 247.03125 106.738281 246.867188 106.109375 246.644531 105.496094 C 246.421875 104.882812 246.140625 104.296875 245.804688 103.738281 C 245.464844 103.179688 245.074219 102.660156 244.636719 102.179688 C 244.195312 101.699219 243.710938 101.265625 243.1875 100.878906 C 242.660156 100.492188 242.101562 100.160156 241.511719 99.882812 L 112.96875 39.953125 C 112.378906 39.675781 111.765625 39.460938 111.128906 39.308594 C 110.496094 39.152344 109.851562 39.0625 109.199219 39.035156 C 108.546875 39.003906 107.898438 39.042969 107.253906 39.140625 C 106.609375 39.242188 105.980469 39.402344 105.367188 39.625 C 104.753906 39.847656 104.167969 40.128906 103.609375 40.46875 C 103.050781 40.808594 102.53125 41.195312 102.050781 41.636719 C 101.570312 42.078125 101.132812 42.5625 100.75 43.089844 C 100.363281 43.613281 100.03125 44.175781 99.753906 44.765625 L 84.78125 76.886719 C 84.503906 77.476562 84.289062 78.089844 84.132812 78.726562 C 83.980469 79.359375 83.886719 80.003906 83.859375 80.65625 C 83.832031 81.308594 83.867188 81.957031 83.964844 82.601562 C 84.0625 83.246094 84.226562 83.878906 84.449219 84.492188 C 84.671875 85.105469 84.953125 85.691406 85.289062 86.25 C 85.628906 86.808594 86.019531 87.328125 86.460938 87.808594 C 86.902344 88.292969 87.382812 88.726562 87.910156 89.113281 C 88.4375 89.5 88.996094 89.828125 89.585938 90.105469 L 96.636719 93.390625 L 75.082031 139.628906 L 68.03125 136.34375 C 67.4375 136.066406 66.824219 135.851562 66.191406 135.695312 C 65.558594 135.542969 64.914062 135.449219 64.261719 135.421875 C 63.609375 135.390625 62.960938 135.425781 62.316406 135.527344 C 61.671875 135.625 61.039062 135.785156 60.425781 136.011719 C 59.8125 136.234375 59.226562 136.515625 58.667969 136.851562 C 58.109375 137.191406 57.589844 137.582031 57.109375 138.023438 C 56.628906 138.464844 56.195312 138.945312 55.808594 139.472656 C 55.421875 140 55.09375 140.558594 54.816406 141.152344 L 39.832031 173.277344 C 39.554688 173.871094 39.339844 174.480469 39.183594 175.117188 C 39.027344 175.75 38.9375 176.394531 38.910156 177.046875 C 38.878906 177.699219 38.914062 178.347656 39.015625 178.992188 C 39.113281 179.636719 39.273438 180.265625 39.5 180.878906 C 39.722656 181.492188 40.003906 182.078125 40.339844 182.636719 C 40.679688 183.195312 41.070312 183.714844 41.511719 184.195312 C 41.949219 184.679688 42.433594 185.113281 42.960938 185.5 C 43.488281 185.882812 44.046875 186.214844 44.636719 186.492188 Z M 44.636719 186.492188 " fill-opacity="1" fill-rule="nonzero"/><g clip-path="url(#867cb6c5d4)"><path fill="#153e76" d="M 336.625 206.125 C 336.175781 204.886719 335.507812 203.78125 334.617188 202.808594 C 333.726562 201.835938 332.683594 201.070312 331.488281 200.515625 L 251.140625 163.058594 C 249.953125 162.5 248.699219 162.1875 247.386719 162.132812 C 246.074219 162.074219 244.800781 162.273438 243.566406 162.726562 C 242.328125 163.175781 241.222656 163.84375 240.25 164.734375 C 239.277344 165.625 238.511719 166.667969 237.957031 167.863281 L 234.664062 174.921875 L 222.523438 169.257812 L 214.113281 187.277344 L 226.261719 192.949219 L 222.976562 199.996094 C 222.699219 200.589844 222.484375 201.203125 222.328125 201.835938 C 222.171875 202.46875 222.078125 203.113281 222.046875 203.765625 C 222.015625 204.417969 222.050781 205.066406 222.148438 205.710938 C 222.246094 206.355469 222.40625 206.988281 222.628906 207.601562 C 222.851562 208.214844 223.132812 208.800781 223.46875 209.359375 C 223.808594 209.917969 224.195312 210.441406 224.636719 210.921875 C 225.074219 211.40625 225.558594 211.839844 226.085938 212.226562 C 226.609375 212.613281 227.167969 212.945312 227.761719 213.222656 L 308.078125 250.664062 C 308.667969 250.9375 309.28125 251.15625 309.914062 251.308594 C 310.550781 251.464844 311.195312 251.554688 311.847656 251.585938 C 312.5 251.613281 313.148438 251.578125 313.792969 251.476562 C 314.4375 251.378906 315.066406 251.21875 315.679688 250.992188 C 316.292969 250.769531 316.878906 250.488281 317.4375 250.148438 C 317.996094 249.8125 318.515625 249.421875 318.996094 248.980469 C 319.476562 248.539062 319.910156 248.054688 320.296875 247.527344 C 320.683594 247.003906 321.015625 246.441406 321.289062 245.851562 L 336.277344 213.722656 C 336.839844 212.53125 337.148438 211.277344 337.210938 209.960938 C 337.269531 208.644531 337.074219 207.367188 336.625 206.125 Z M 336.625 206.125 " fill-opacity="1" fill-rule="nonzero"/></g><g clip-path="url(#48bfa8e15e)"><path fill="#153e76" d="M 227.832031 317.441406 L 48.84375 317.441406 C 48.179688 317.421875 47.523438 317.472656 46.871094 317.589844 C 46.21875 317.703125 45.582031 317.882812 44.964844 318.125 C 44.347656 318.367188 43.761719 318.671875 43.203125 319.03125 C 42.648438 319.390625 42.132812 319.800781 41.65625 320.265625 C 41.183594 320.726562 40.757812 321.234375 40.382812 321.78125 C 40.011719 322.332031 39.695312 322.910156 39.4375 323.519531 C 39.179688 324.132812 38.984375 324.761719 38.855469 325.414062 C 38.722656 326.0625 38.65625 326.71875 38.65625 327.382812 C 38.65625 328.046875 38.722656 328.703125 38.855469 329.351562 C 38.984375 330.003906 39.179688 330.632812 39.4375 331.242188 C 39.695312 331.855469 40.011719 332.433594 40.382812 332.984375 C 40.757812 333.53125 41.183594 334.035156 41.65625 334.5 C 42.132812 334.960938 42.648438 335.375 43.203125 335.734375 C 43.761719 336.09375 44.347656 336.394531 44.964844 336.636719 C 45.582031 336.882812 46.21875 337.058594 46.871094 337.175781 C 47.523438 337.292969 48.179688 337.339844 48.84375 337.324219 L 227.832031 337.324219 C 228.472656 337.308594 229.109375 337.234375 229.734375 337.09375 C 230.363281 336.953125 230.972656 336.757812 231.5625 336.5 C 232.152344 336.242188 232.710938 335.933594 233.238281 335.566406 C 233.769531 335.203125 234.257812 334.789062 234.707031 334.328125 C 235.15625 333.871094 235.554688 333.371094 235.910156 332.832031 C 236.261719 332.292969 236.558594 331.726562 236.800781 331.132812 C 237.042969 330.539062 237.226562 329.925781 237.351562 329.292969 C 237.472656 328.664062 237.535156 328.027344 237.535156 327.382812 C 237.535156 326.738281 237.472656 326.101562 237.351562 325.472656 C 237.226562 324.839844 237.042969 324.226562 236.800781 323.632812 C 236.558594 323.035156 236.261719 322.46875 235.910156 321.933594 C 235.554688 321.394531 235.15625 320.894531 234.707031 320.433594 C 234.257812 319.976562 233.769531 319.5625 233.238281 319.199219 C 232.710938 318.832031 232.152344 318.519531 231.5625 318.265625 C 230.972656 318.007812 230.363281 317.808594 229.734375 317.671875 C 229.109375 317.53125 228.472656 317.457031 227.832031 317.441406 Z M 227.832031 317.441406 " fill-opacity="1" fill-rule="nonzero"/></g><path fill="#153e76" d="M 94.203125 277.664062 C 92.671875 277.664062 91.152344 277.785156 89.640625 278.019531 C 88.132812 278.253906 86.648438 278.605469 85.191406 279.070312 C 83.734375 279.535156 82.320312 280.109375 80.953125 280.792969 C 79.585938 281.476562 78.277344 282.261719 77.03125 283.148438 C 75.785156 284.03125 74.613281 285.007812 73.515625 286.074219 C 72.417969 287.140625 71.410156 288.285156 70.492188 289.507812 C 69.570312 290.726562 68.75 292.011719 68.03125 293.359375 C 67.308594 294.710938 66.695312 296.105469 66.1875 297.546875 L 210.484375 297.546875 C 209.980469 296.105469 209.367188 294.710938 208.644531 293.359375 C 207.921875 292.011719 207.101562 290.726562 206.183594 289.507812 C 205.261719 288.285156 204.253906 287.140625 203.160156 286.074219 C 202.0625 285.007812 200.890625 284.03125 199.644531 283.148438 C 198.394531 282.261719 197.089844 281.476562 195.722656 280.792969 C 194.351562 280.109375 192.941406 279.535156 191.484375 279.070312 C 190.027344 278.605469 188.542969 278.253906 187.03125 278.019531 C 185.519531 277.785156 184 277.664062 182.472656 277.664062 Z M 94.203125 277.664062 " fill-opacity="1" fill-rule="nonzero"/></svg>