<svg xmlns="http://www.w3.org/2000/svg" xmlns:xlink="http://www.w3.org/1999/xlink" width="500" zoomAndPan="magnify" viewBox="0 0 375 374.999991" height="500" preserveAspectRatio="xMidYMid meet" version="1.0"><defs><clipPath id="a748c1d7d6"><path d="M 47.398438 174.519531 L 268.648438 174.519531 L 268.648438 337.230469 L 47.398438 337.230469 Z M 47.398438 174.519531 " clip-rule="nonzero"/></clipPath><clipPath id="f91c378e8d"><path d="M 158 37 L 327.601562 37 L 327.601562 338 L 158 338 Z M 158 37 " clip-rule="nonzero"/></clipPath><clipPath id="4595b32e01"><path d="M 159.609375 37.5 L 326.101562 37.5 C 326.496094 37.5 326.878906 37.65625 327.160156 37.9375 C 327.441406 38.21875 327.601562 38.601562 327.601562 39 L 327.601562 336 C 327.601562 336.398438 327.441406 336.78125 327.160156 337.0625 C 326.878906 337.34375 326.496094 337.5 326.101562 337.5 L 159.609375 337.5 C 159.210938 337.5 158.828125 337.34375 158.546875 337.0625 C 158.265625 336.78125 158.109375 336.398438 158.109375 336 L 158.109375 39 C 158.109375 38.601562 158.265625 38.21875 158.546875 37.9375 C 158.828125 37.65625 159.210938 37.5 159.609375 37.5 Z M 159.609375 37.5 " clip-rule="nonzero"/></clipPath><clipPath id="6167bfd6a5"><path d="M 0 0.441406 L 169.601562 0.441406 L 169.601562 300.679688 L 0 300.679688 Z M 0 0.441406 " clip-rule="nonzero"/></clipPath><clipPath id="0ae1764dd2"><path d="M 1.609375 0.5 L 168.101562 0.5 C 168.496094 0.5 168.878906 0.65625 169.160156 0.9375 C 169.441406 1.21875 169.601562 1.601562 169.601562 2 L 169.601562 299 C 169.601562 299.398438 169.441406 299.78125 169.160156 300.0625 C 168.878906 300.34375 168.496094 300.5 168.101562 300.5 L 1.609375 300.5 C 1.210938 300.5 0.828125 300.34375 0.546875 300.0625 C 0.265625 299.78125 0.109375 299.398438 0.109375 299 L 0.109375 2 C 0.109375 1.601562 0.265625 1.21875 0.546875 0.9375 C 0.828125 0.65625 1.210938 0.5 1.609375 0.5 Z M 1.609375 0.5 " clip-rule="nonzero"/></clipPath><clipPath id="27da8d2715"><rect x="0" width="170" y="0" height="301"/></clipPath><clipPath id="0b670062c6"><path d="M 158.109375 37.503906 L 327.609375 37.503906 L 327.609375 337.5 L 158.109375 337.5 Z M 158.109375 37.503906 " clip-rule="nonzero"/></clipPath><clipPath id="3a2a55fdb4"><path d="M 159.609375 37.503906 L 326.097656 37.503906 C 326.496094 37.503906 326.875 37.660156 327.15625 37.941406 C 327.4375 38.222656 327.597656 38.605469 327.597656 39.003906 L 327.597656 335.996094 C 327.597656 336.394531 327.4375 336.777344 327.15625 337.058594 C 326.875 337.339844 326.496094 337.496094 326.097656 337.496094 L 159.609375 337.496094 C 159.210938 337.496094 158.828125 337.339844 158.546875 337.058594 C 158.265625 336.777344 158.109375 336.394531 158.109375 335.996094 L 158.109375 39.003906 C 158.109375 38.605469 158.265625 38.222656 158.546875 37.941406 C 158.828125 37.660156 159.210938 37.503906 159.609375 37.503906 Z M 159.609375 37.503906 " clip-rule="nonzero"/></clipPath><clipPath id="77b39ab57f"><path d="M 207.15625 61.953125 L 278.40625 61.953125 L 278.40625 133.203125 L 207.15625 133.203125 Z M 207.15625 61.953125 " clip-rule="nonzero"/></clipPath></defs><g clip-path="url(#a748c1d7d6)"><path fill="#153e76" d="M 257.5 262.3125 C 253.429688 268.625 236.878906 275.089844 234.3125 276.066406 C 234.148438 276.128906 233.984375 276.199219 233.824219 276.277344 C 233.34375 276.5 231.773438 276.929688 229.472656 274.476562 C 227.449219 272.328125 223.964844 266.871094 222.191406 264.019531 C 221.617188 263.089844 222.027344 261.863281 223.050781 261.476562 L 253.941406 249.726562 C 254.59375 249.480469 255.335938 249.660156 255.800781 250.183594 C 257.496094 252.089844 260.933594 256.984375 257.5 262.3125 Z M 249.382812 308.675781 C 247.246094 309.285156 244.183594 309.707031 239.90625 309.453125 C 238.386719 309.359375 236.9375 308.789062 235.765625 307.816406 L 226.089844 299.78125 C 224.644531 298.578125 224.898438 296.285156 226.578125 295.4375 C 230.222656 293.601562 236.613281 291.234375 244.523438 291.851562 C 247.882812 292.117188 250.804688 294.257812 252.035156 297.394531 C 252.5625 298.734375 253.054688 300.355469 253.390625 302.257812 C 253.894531 305.109375 252.167969 307.882812 249.382812 308.675781 Z M 220.5 310.015625 L 95.691406 310.015625 C 94.449219 310.015625 93.800781 309.238281 94.644531 308.757812 L 100.269531 305.542969 C 106.648438 302.257812 114.046875 301.964844 116.976562 301.996094 C 120.253906 302.03125 123.527344 302.039062 126.804688 302.039062 L 189.386719 302.039062 C 192.664062 302.039062 195.941406 302.03125 199.214844 301.996094 C 202.144531 301.964844 209.542969 302.257812 215.921875 305.542969 L 221.550781 308.757812 C 222.394531 309.238281 221.742188 310.015625 220.5 310.015625 Z M 94 264.019531 C 92.226562 266.871094 88.746094 272.328125 86.722656 274.476562 C 84.417969 276.929688 82.847656 276.5 82.371094 276.277344 C 82.207031 276.199219 82.046875 276.128906 81.882812 276.066406 C 79.3125 275.089844 62.765625 268.625 58.695312 262.3125 C 55.257812 256.984375 58.695312 252.089844 60.390625 250.183594 C 60.855469 249.660156 61.597656 249.480469 62.253906 249.726562 L 93.140625 261.476562 C 94.164062 261.863281 94.578125 263.089844 94 264.019531 Z M 90.105469 299.78125 L 80.425781 307.816406 C 79.257812 308.789062 77.804688 309.359375 76.285156 309.453125 C 72.007812 309.707031 68.949219 309.285156 66.808594 308.675781 C 64.027344 307.882812 62.296875 305.109375 62.800781 302.257812 C 63.136719 300.355469 63.632812 298.734375 64.15625 297.394531 C 65.390625 294.257812 68.308594 292.117188 71.667969 291.851562 C 79.578125 291.234375 85.96875 293.601562 89.617188 295.4375 C 91.292969 296.285156 91.550781 298.578125 90.105469 299.78125 Z M 214.742188 282.023438 C 212.277344 284.210938 208.265625 286.574219 201.925781 287.640625 C 201.925781 287.640625 185.636719 290.53125 158.09375 290.53125 C 130.554688 290.53125 114.269531 287.640625 114.269531 287.640625 C 107.929688 286.574219 103.917969 284.210938 101.449219 282.023438 C 99.035156 279.878906 98.515625 276.308594 100.207031 273.558594 L 101.550781 271.375 C 104.070312 267.28125 108.234375 264.472656 112.980469 263.707031 C 123.15625 262.058594 139.214844 261.9375 149.179688 262.050781 C 155.054688 262.117188 160.933594 262.125 166.8125 262.054688 C 176.757812 261.933594 192.96875 262.046875 203.214844 263.707031 C 207.957031 264.472656 212.125 267.28125 214.640625 271.375 L 215.984375 273.558594 C 217.675781 276.308594 217.15625 279.878906 214.742188 282.023438 Z M 84.066406 215.804688 C 85.128906 212.484375 88.605469 203.910156 99.410156 188.785156 C 101.640625 185.660156 105.148438 183.703125 108.976562 183.449219 C 118.871094 182.785156 139.4375 181.582031 158.09375 181.582031 C 176.757812 181.582031 197.320312 182.785156 207.214844 183.449219 C 211.042969 183.703125 214.550781 185.660156 216.78125 188.785156 C 227.582031 203.910156 231.066406 212.484375 232.125 215.804688 C 232.378906 216.597656 231.777344 217.40625 230.945312 217.394531 L 158.09375 216.277344 L 85.25 217.394531 C 84.414062 217.40625 83.8125 216.597656 84.066406 215.804688 Z M 268.789062 312.273438 L 267.890625 259.734375 C 267.320312 244.296875 245.90625 224.535156 245.90625 224.535156 C 248.085938 223.355469 250.503906 222.667969 252.984375 222.558594 C 256.488281 222.40625 261.464844 221.1875 260.265625 215.320312 C 258.945312 208.855469 249.050781 207.308594 243.792969 206.945312 C 242.144531 206.832031 240.84375 208.328125 241.175781 209.949219 L 243.011719 218.867188 C 243.015625 218.875 243.015625 218.878906 243.015625 218.886719 C 243.148438 219.554688 242.234375 219.890625 241.886719 219.308594 L 240.253906 216.558594 C 227.308594 194.363281 221.664062 186.496094 216.917969 182.425781 C 214.765625 180.578125 212.1875 179.296875 209.421875 178.683594 C 188.914062 174.128906 158.09375 174.53125 158.09375 174.53125 C 158.09375 174.53125 127.277344 174.128906 106.769531 178.683594 C 104.003906 179.296875 101.425781 180.578125 99.273438 182.425781 C 94.527344 186.496094 88.882812 194.363281 75.941406 216.558594 L 74.308594 219.308594 C 73.957031 219.890625 73.042969 219.554688 73.175781 218.886719 C 73.175781 218.878906 73.179688 218.875 73.179688 218.867188 L 75.015625 209.949219 C 75.347656 208.328125 74.046875 206.832031 72.398438 206.945312 C 67.144531 207.308594 57.246094 208.855469 55.929688 215.320312 C 54.730469 221.1875 59.707031 222.40625 63.210938 222.558594 C 65.6875 222.667969 68.105469 223.355469 70.285156 224.535156 C 70.285156 224.535156 48.875 244.296875 48.300781 259.734375 L 47.402344 312.273438 C 47.363281 314.453125 48.226562 316.539062 49.765625 318.039062 L 49.765625 324.164062 C 49.765625 331.476562 55.746094 337.460938 63.058594 337.460938 L 87.449219 337.460938 C 92.40625 337.460938 96.464844 333.402344 96.464844 328.441406 L 96.464844 324.636719 L 219.726562 324.636719 L 219.726562 328.441406 C 219.726562 333.402344 223.785156 337.460938 228.742188 337.460938 L 253.132812 337.460938 C 260.445312 337.460938 266.429688 331.476562 266.429688 324.164062 L 266.429688 318.039062 C 267.964844 316.539062 268.828125 314.453125 268.789062 312.273438 " fill-opacity="1" fill-rule="nonzero"/></g><g clip-path="url(#f91c378e8d)"><g clip-path="url(#4595b32e01)"><g transform="matrix(1, 0, 0, 1, 158, 37)"><g clip-path="url(#27da8d2715)"><g clip-path="url(#6167bfd6a5)"><g clip-path="url(#0ae1764dd2)"><path fill="#ffffff" d="M 0.109375 0.5 L 169.601562 0.5 L 169.601562 300.421875 L 0.109375 300.421875 Z M 0.109375 0.5 " fill-opacity="1" fill-rule="nonzero"/></g></g></g></g></g></g><g clip-path="url(#0b670062c6)"><g clip-path="url(#3a2a55fdb4)"><path stroke-linecap="butt" transform="matrix(0.75, 0, 0, 0.75, 158.108037, 37.503301)" fill="none" stroke-linejoin="miter" d="M 2.001785 0.000807457 L 223.986174 0.000807457 C 224.517424 0.000807457 225.022633 0.209141 225.397633 0.584141 C 225.772633 0.959141 225.986174 1.469558 225.986174 2.000808 L 225.986174 397.990417 C 225.986174 398.521667 225.772633 399.032084 225.397633 399.407084 C 225.022633 399.782084 224.517424 399.990417 223.986174 399.990417 L 2.001785 399.990417 C 1.470535 399.990417 0.960118 399.782084 0.585118 399.407084 C 0.210118 399.032084 0.00178464 398.521667 0.00178464 397.990417 L 0.00178464 2.000808 C 0.00178464 1.469558 0.210118 0.959141 0.585118 0.584141 C 0.960118 0.209141 1.470535 0.000807457 2.001785 0.000807457 Z M 2.001785 0.000807457 " stroke="#153e76" stroke-width="10" stroke-opacity="1" stroke-miterlimit="4"/></g></g><g clip-path="url(#77b39ab57f)"><path fill="#153e76" d="M 278.546875 97.667969 C 278.546875 117.367188 262.554688 133.355469 242.851562 133.355469 C 223.128906 133.355469 207.15625 117.367188 207.15625 97.667969 C 207.15625 77.941406 223.128906 61.953125 242.851562 61.953125 C 262.554688 61.953125 278.546875 77.941406 278.546875 97.667969 Z M 278.546875 97.667969 " fill-opacity="1" fill-rule="nonzero"/></g><path fill="#ffffff" d="M 253.105469 83.933594 C 253.105469 83.933594 242.914062 96.859375 238.394531 102.578125 C 235.605469 99.667969 232.558594 96.5 232.558594 96.5 C 230.707031 94.566406 227.652344 94.511719 225.707031 96.363281 C 223.792969 98.203125 223.726562 101.277344 225.570312 103.199219 L 235.261719 113.289062 C 236.226562 114.292969 237.597656 114.84375 238.992188 114.773438 C 240.390625 114.707031 241.679688 114.046875 242.550781 112.949219 L 260.699219 89.949219 C 262.359375 87.847656 262.003906 84.796875 259.902344 83.15625 C 257.792969 81.488281 254.753906 81.863281 253.105469 83.933594 Z M 253.105469 83.933594 " fill-opacity="1" fill-rule="nonzero"/><path stroke-linecap="round" transform="matrix(0.75, 0, 0, 0.75, 178.380343, 155.172134)" fill="none" stroke-linejoin="miter" d="M 6.998085 6.999655 L 164.930387 6.999655 " stroke="#153e76" stroke-width="14" stroke-opacity="1" stroke-miterlimit="4"/><path stroke-linecap="round" transform="matrix(0.75, 0, 0, 0.75, 178.380343, 185.424305)" fill="none" stroke-linejoin="miter" d="M 6.998085 7.001969 L 164.930387 7.001969 " stroke="#153e76" stroke-width="14" stroke-opacity="1" stroke-miterlimit="4"/><path stroke-linecap="round" transform="matrix(0.75, 0, 0, 0.75, 178.380343, 215.67649)" fill="none" stroke-linejoin="miter" d="M 6.998085 6.999056 L 164.930387 6.999056 " stroke="#153e76" stroke-width="14" stroke-opacity="1" stroke-miterlimit="4"/><path stroke-linecap="round" transform="matrix(0.75, 0, 0, 0.75, 178.380343, 245.928646)" fill="none" stroke-linejoin="miter" d="M 6.998085 7.001389 L 164.930387 7.001389 " stroke="#153e76" stroke-width="14" stroke-opacity="1" stroke-miterlimit="4"/></svg>